<svg version="1.2" xmlns="http://www.w3.org/2000/svg" viewBox="0 0 500 500" width="500" height="500">
	<title>2456050-ai</title>
	<defs>
		<linearGradient id="g1" x1="199.3" y1="361.3" x2="199.3" y2="337.3" gradientUnits="userSpaceOnUse">
			<stop offset="0" stop-color="#ffffff"/>
			<stop offset="1" stop-color="#ffffff" stop-opacity="0"/>
		</linearGradient>
	</defs>
	<style>
		.s0 { fill: #b5dfea } 
		.s1 { opacity: .5;fill: #90cedd } 
		.s2 { fill: #79c9e8 } 
		.s3 { fill: #d7f0f9 } 
		.s4 { fill: #0582c1 } 
		.s5 { fill: #ffffff } 
		.s6 { fill: #ffbf4d } 
		.s7 { fill: #00668e } 
		.s8 { fill: #05556d } 
		.s9 { fill: #f98d3d } 
		.s10 { fill: #ed701b } 
		.s11 { fill: #efaa3a } 
		.s12 { opacity: .3;mix-blend-mode: multiply;fill: #f98d2b } 
		.s13 { fill: #49b4d6 } 
		.s14 { fill: #ff9f50 } 
		.s15 { fill: #f77e2d } 
		.s16 { opacity: .5;mix-blend-mode: overlay;fill: url(#g1) } 
	</style>
	<g id="OBJECTS">
		<g id="&lt;Group&gt;">
			<g id="&lt;Group&gt;">
				<path id="&lt;Path&gt;" class="s0" d="m47.3 393.6c-6.7 0-12.2-5.2-12.7-11.9-2-30.6-1.6-97.4 51.3-102.2 79.3-7.2 52.2-93.2 154.3-97.6 142.2-6 110.9 87.8 163.7 99.3 65.2 14.1 62.4 65.2 61.9 99.8-0.1 7-5.8 12.6-12.7 12.6z"/>
				<g id="&lt;Group&gt;">
					<path id="&lt;Path&gt;" class="s1" d="m465.8 381c-0.1 7-5.8 12.6-12.7 12.6h-27.6c0.6-34.7 2.6-84.8-61.9-98.8-52.8-11.4-21.5-105.3-163.7-99.2q-7.3 0.3-13.8 1.2c12.8-8.2 29.8-13.8 54.1-14.9 142.2-6 110.9 87.8 163.7 99.3 65.2 14.1 62.4 65.2 61.9 99.8z"/>
				</g>
				<g id="&lt;Group&gt;">
					<path id="&lt;Path&gt;" class="s2" d="m180 0v163.8h-2.2v-163.8z"/>
					<path id="&lt;Path&gt;" class="s2" d="m341 0v189h-2.3v-189z"/>
					<g id="&lt;Group&gt;">
						<path id="&lt;Path&gt;" class="s3" d="m352.2 192.4l-12.5 106.7c-0.8 7.2-7.3 12.3-14.4 11.4l-166.9-19.4c-7.2-0.9-12.3-7.3-11.5-14.5l12.5-106.7c0.8-7.2 7.3-12.3 14.4-11.4l167 19.4c7.1 0.9 12.2 7.3 11.4 14.5z"/>
						<path id="&lt;Path&gt;" class="s4" d="m158.2 180.4l1.2-10.5c0.8-7.2 7.3-12.3 14.4-11.4l167 19.4c7.1 0.9 12.2 7.3 11.4 14.5l-1.2 10.5z"/>
						<g id="&lt;Group&gt;">
							<path id="&lt;Compound Path&gt;" fill-rule="evenodd" class="s2" d="m185.2 245.1l21.1-37.3c1.4-2.4 4-3.7 6.8-3.4 3.7 0.4 6.4 3.8 6 7.6l-4.4 37.7h0.2c2.6 0.3 4.4 2.7 4.1 5.3-0.3 2.5-2.6 4.4-5.2 4.1h-0.2l-0.8 6.9c-0.4 2.8-2.9 4.8-5.7 4.4-2.8-0.3-4.8-2.8-4.5-5.6l0.8-6.9-15.2-1.8c-2.6-0.3-4.5-2.6-4.2-5.2l0.4-3.5q0.2-1.2 0.8-2.3zm19.4 2.8l2.7-23.4c0-0.2-0.2-0.3-0.3-0.1l-12.5 22c-0.2 0.4 0.1 0.9 0.5 1l8.9 1c0.3 0.1 0.6-0.2 0.7-0.5z"/>
							<path id="&lt;Compound Path&gt;" fill-rule="evenodd" class="s2" d="m278.6 256l21.1-37.3c1.4-2.4 4-3.7 6.8-3.4 3.7 0.4 6.4 3.8 6 7.6l-4.4 37.7h0.2c2.6 0.3 4.4 2.7 4.1 5.3-0.3 2.6-2.6 4.4-5.2 4.1h-0.2l-0.8 6.9c-0.4 2.8-2.9 4.8-5.7 4.4-2.8-0.3-4.8-2.8-4.5-5.6l0.8-6.9-15.2-1.8c-2.6-0.3-4.5-2.6-4.2-5.2l0.4-3.5q0.2-1.2 0.8-2.3zm19.4 2.8l2.7-23.4c0-0.2-0.2-0.3-0.3-0.1l-12.5 22.1c-0.2 0.3 0.1 0.8 0.5 0.9l8.9 1c0.3 0.1 0.6-0.2 0.7-0.5z"/>
							<path id="&lt;Compound Path&gt;" fill-rule="evenodd" class="s2" d="m236.6 223.1c1.2-10.5 7.5-15.9 17.6-14.7 10.2 1.2 15 7.9 13.8 18.4l-4 34.3c-1.2 10.5-7.5 15.9-17.6 14.7-10.2-1.2-15-7.9-13.8-18.4zm6.3 36.1c-0.6 4.7 1.3 6.7 4.6 7.1 3.3 0.4 5.5-1.1 6.1-5.8l4.1-35.6c0.6-4.7-1.3-6.7-4.6-7.1-3.3-0.4-5.5 1.1-6.1 5.8z"/>
						</g>
						<g id="&lt;Group&gt;">
							<circle id="&lt;Path&gt;" class="s5" cx="174.4" cy="172.8" r="3.5"/>
							<circle id="&lt;Path&gt;" class="s2" cx="191.1" cy="174.8" r="3.5"/>
							<circle id="&lt;Path&gt;" class="s6" cx="208.5" cy="176.8" r="3.5"/>
						</g>
					</g>
				</g>
				<g id="&lt;Group&gt;">
					<path id="&lt;Path&gt;" class="s7" d="m166 296.6q-5.2 37.2-5.6 40.9-0.4 3.7-10.9 50.8h-7.3q1.1-60.1 0.7-69.3-0.4-10.2 1.9-20.2z"/>
					<path id="&lt;Path&gt;" class="s4" d="m172.5 296.6q3.7 37.2 4.2 40.9 0.5 3.7 1.9 50.8h-7.3q-14.2-61.1-17.1-70.3-2.8-9.1-4.5-22z"/>
					<path id="&lt;Path&gt;" class="s4" d="m177.9 388.3c3.1 0.4 6.3 2.3 8.4 3.7 0.6 0.4 0.3 1.4-0.5 1.4h-13.9v-5.1z"/>
					<path id="&lt;Path&gt;" class="s4" d="m148.6 388.3c3 0.4 6.3 2.3 8.4 3.7 0.6 0.4 0.3 1.4-0.5 1.4h-14v-5.1z"/>
					<g id="&lt;Group&gt;">
						<path id="&lt;Path&gt;" class="s7" d="m164.4 242.1q2.3 11.4-8.6 7c-10.8-4.5-4.1-16.8-2.3-18.4q2.7-2.3 7.6-1.7 1.7-1.3 6-0.8 5.5 0.7 0.7 8.1z"/>
						<path id="&lt;Path&gt;" class="s8" d="m169.3 229.4c-2.2-0.4-7.5-0.8-9.1 3.3q-4.2-1.7-5.9 1.9c-1.7 3.6-0.6 16 9.7 13.1-0.9 2.1-3.1 3.5-8.2 1.4-10.8-4.5-4.1-16.8-2.3-18.4q2.7-2.3 7.6-1.7 1.7-1.3 6-0.8c1.1 0.2 1.8 0.6 2.2 1.2z"/>
						<path id="&lt;Path&gt;" class="s9" d="m167.8 236.3q1.2 3 1.4 7.3 0.2 4.2-5 6.4v2.8h-8.4v-3.7q3.6 0.2 4.1-4.5c-1.7-0.1-2.5-3.4-1.4-4.8q1.1-1.4 2.5 0 3.9-0.3 6.8-3.5z"/>
						<path id="&lt;Path&gt;" class="s10" d="m159.2 248.9q3 1.7 5 1.1v2.8h-1.2c0-0.8 0.1-1.3-0.7-1.6q-1.4-0.6-3.1-2.3z"/>
					</g>
					<path id="&lt;Path&gt;" class="s9" d="m162.4 236c-1.7-0.1-2.4-0.2-2.7-0.5-0.2-0.1-0.1-0.4 0.1-0.4l1-0.2c-1.1-0.8-2-1.5-1.6-2.3q0.5-1.3 4.8 0.4z"/>
					<g id="&lt;Group&gt;">
						<path id="&lt;Compound Path&gt;" fill-rule="evenodd" class="s6" d="m195.2 246.1c-2.2 2.5-8.5 10.6-21.6 21l0.4 36.4h-0.3c-8.2 1.8-23.7 0.6-28.6 0.1q-1-0.1-1.5-0.1v-0.2l-1.7-2.5-15.1-22.2q9-14 14.3-20.1 5.9-6.8 13.4-5.9l10.4 0.1q1.2 0 2.3-0.5c3.4-1.5 13.4-6.1 14.2-6.8q1.4-1.2-19.2-9.2l1.9-3.4q22.6 4.9 30.9 11.1c0.7 0.5 0.8 1.5 0.2 2.2zm-50.6 44.4l1.4-19.1-7.8 8.7 4.7 10.2 1.4 3.2z"/>
					</g>
					<path id="&lt;Path&gt;" class="s11" d="m142.9 290.3l1.4 3.2-0.7 9.8-1.7-2.5z"/>
					<path id="&lt;Path&gt;" class="s12" d="m195 243.9c0.7 0.5 0.8 1.5 0.2 2.2-2.2 2.5-8.5 10.6-21.6 21l0.4 36.4h-0.3c-1.6 0.4-3.6 0.6-5.8 0.8-0.4-5.3 0.2-13.5 0.8-22.9 0.3-5.6 0-14.6 1.4-15.6q14.5-10.6 24.9-21.9z"/>
					<path id="&lt;Path&gt;" class="s7" d="m178.6 388.3h-2.4q-0.5-20.7-8.3-84l5.3-0.6c1.1 11 3.2 31.1 3.5 33.8q0.5 3.7 1.9 50.8z"/>
					<g id="&lt;Group&gt;">
						<path id="&lt;Path&gt;" class="s4" d="m139.4 240.5c-1.9 2-4.6 3.2-7.6 3.2-6 0-10.8-4.8-10.8-10.7 0-6 4.8-10.8 10.8-10.8 5.9 0 10.7 4.8 10.7 10.8 0 1.8-0.4 3.5-1.2 5l1.6 2.9z"/>
						<g id="&lt;Group&gt;">
							<path id="&lt;Compound Path&gt;" class="s5" d="m126.2 232h0.4v1.5c0 0.5 0.1 0.6 0.4 0.6 0.3 0 0.5-0.1 0.7-0.4v-1.7h0.4v2.4h-0.3l-0.1-0.3c-0.2 0.2-0.5 0.4-0.8 0.4-0.5 0-0.7-0.3-0.7-1z"/>
							<path id="&lt;Compound Path&gt;" fill-rule="evenodd" class="s5" d="m129.9 234.7v0.8h-0.5v-3.5h0.4v0.3c0.3-0.2 0.5-0.4 0.8-0.4 0.7 0 1 0.5 1 1.3 0 0.8-0.5 1.3-1.1 1.3q-0.3 0-0.6-0.3zm0.6-0.5c0.4 0 0.7-0.3 0.7-0.9 0-0.6-0.2-1-0.7-1q-0.3 0-0.6 0.4v1.3c0.2 0.2 0.4 0.2 0.6 0.2z"/>
							<path id="&lt;Compound Path&gt;" class="s5" d="m132.7 233.9c0.2 0.2 0.4 0.3 0.7 0.3 0.3 0 0.5-0.2 0.5-0.4 0-0.3-0.3-0.4-0.6-0.5-0.3-0.1-0.7-0.3-0.7-0.7 0-0.4 0.3-0.7 0.9-0.7 0.3 0 0.5 0.2 0.7 0.3l-0.2 0.3q-0.2-0.2-0.5-0.2c-0.4 0-0.5 0.1-0.5 0.3 0 0.2 0.3 0.3 0.6 0.4 0.3 0.2 0.7 0.3 0.7 0.8 0 0.4-0.3 0.7-0.9 0.7-0.3 0-0.7-0.1-0.9-0.3z"/>
							<path id="&lt;Compound Path&gt;" class="s5" d="m135.6 233.9c0.2 0 0.3 0.1 0.3 0.3 0 0.2-0.1 0.3-0.3 0.3-0.2 0-0.3-0.1-0.3-0.3 0-0.2 0.1-0.3 0.3-0.3z"/>
							<path id="&lt;Compound Path&gt;" class="s5" d="m137.4 233.9c0.1 0 0.3 0.1 0.3 0.3 0 0.2-0.2 0.3-0.3 0.3-0.2 0-0.3-0.1-0.3-0.3 0-0.2 0.1-0.3 0.3-0.3z"/>
						</g>
					</g>
				</g>
				<g id="&lt;Group&gt;">
					<g id="&lt;Group&gt;">
						<g id="&lt;Group&gt;">
							<path id="&lt;Path&gt;" class="s2" d="m99.8 371.3c-0.9-1.3-1.3-5.8-0.9-11.4 0.3-5.6-0.6-9.3-8.3-19.9-7.7-10.7-3.1-37.7-3.1-36.2 0.1 1.5 14.9 23.4 16.8 32.1 1.9 8.7-2 16.4-3.5 24.5q-1.5 8 0.7 10.1z"/>
							<path id="&lt;Path&gt;" class="s13" d="m97.3 334.7q-7.6-12.6-9.8-30.9c0.1 1.5 14.9 23.4 16.8 32.1 1.9 8.7-2 16.4-3.5 24.5-0.8 4.3-0.5 6.9-0.1 8.4q-0.4 0.5-0.6 0.3c-1.4-2.2-0.9-11.2 0-14.7 0.9-3.6 2.6-10.7-2.8-19.7z"/>
						</g>
						<g id="&lt;Group&gt;">
							<path id="&lt;Path&gt;" class="s2" d="m104.3 369.9q-4.4-10.8 3-20.3c7.4-9.4 19.2-21.5 19.4-26.3q3 22.8-6.6 29.2c-9.6 6.5-16.3 7.5-14.7 17.4z"/>
							<path id="&lt;Path&gt;" class="s13" d="m126.7 323.3q3 22.8-6.6 29.2c-9.5 6.4-16.1 7.5-14.7 17q-0.5-0.1-0.7-0.6c-1.7-4.2-0.8-13.2 9.9-21q10.7-7.8 12.1-24.6z"/>
						</g>
						<g id="&lt;Group&gt;">
							<path id="&lt;Path&gt;" class="s2" d="m95.5 370.2q0.1-3.8-1.5-8.4c-1.6-4.6-19.1-10.8-20.8-20.3q-1.6-9.5 9.1-22.5c-1.9 1.7-1 19.5 2.1 22.9 6.1 6.6 12.6 10.1 13.3 16.3q0.8 6.2-0.6 12z"/>
							<g id="&lt;Group&gt;">
								<path id="&lt;Path&gt;" class="s13" d="m82.1 319.2c-1.7 2.7-0.7 19.5 2.3 22.7 6.1 6.6 12.6 10.1 13.3 16.3 0.3 2.3 0.3 4.5 0.2 6.3l-1.4 4.4q2.7-11-6-16.4c-11.7-7.2-15.4-18.8-11.8-28.4 1.5-2.4 2.9-4.2 3.4-4.9z"/>
								<path id="&lt;Path&gt;" class="s13" d="m82.1 319.2q0.1-0.1 0.2-0.2-0.1 0.1-0.2 0.2z"/>
							</g>
						</g>
						<g id="&lt;Group&gt;">
							<path id="&lt;Path&gt;" class="s2" d="m106.5 369.5q2.5-9.4 8.7-10.6c6.2-1.3 13.4-10.4 13.8-12.2q-1.1 17.3-22.5 22.8z"/>
							<path id="&lt;Path&gt;" class="s13" d="m114.9 362c-3.8 1.9-5.4 4.4-6 6.8q19.1-6.2 20.1-22.1c-0.1 0.3-0.5 1-1 1.8-1.9 3.2-6.4 10.1-13.1 13.5z"/>
						</g>
					</g>
					<path id="&lt;Path&gt;" class="s6" d="m116.1 390.3c-0.3 1.8-1.9 3.2-3.8 3.2h-17.3c-1.8 0-3.4-1.4-3.7-3.2l-3.9-24.3h32.5z"/>
					<path id="&lt;Path&gt;" class="s14" d="m88.1 370l-0.7-4h32.5l-0.6 4z"/>
					<path id="&lt;Path&gt;" class="s14" d="m119.9 366l-3.8 24.3c-0.3 1.8-1.9 3.2-3.8 3.2h-7.8c1.8 0 3.4-1.4 3.7-3.2l3.9-24.3z"/>
				</g>
				<g id="&lt;Group&gt;">
					<path id="&lt;Path&gt;" class="s6" d="m344.1 322.7v29.9h-146.9v-29.9z"/>
					<path id="&lt;Path&gt;" class="s12" d="m344.1 322.7v7.3h-146.9v-7.3z"/>
					<path id="&lt;Path&gt;" class="s15" d="m210 322.7h13.4l-3.6 7.3h-13.4z"/>
					<path id="&lt;Path&gt;" class="s15" d="m240.2 322.7h13.4l-3.6 7.3h-13.4z"/>
					<path id="&lt;Path&gt;" class="s15" d="m270.4 322.7h13.4l-3.6 7.3h-13.4z"/>
					<path id="&lt;Path&gt;" class="s15" d="m300.6 322.7h13.4l-3.6 7.3h-13.4z"/>
					<path id="&lt;Path&gt;" class="s15" d="m344.1 322.7v0.2l-3.5 7.1h-13.4l3.6-7.3z"/>
					<path id="&lt;Path&gt;" class="s2" d="m225.8 393.4h-10.3v-40.8h10.3z"/>
					<path id="&lt;Path&gt;" class="s13" d="m225.8 393.4h-2.3v-40.8h2.3z"/>
					<path id="&lt;Path&gt;" class="s2" d="m326.6 393.4h-10.4v-40.8h10.4z"/>
					<path id="&lt;Path&gt;" class="s13" d="m326.6 393.4h-3.1v-40.8h3.1z"/>
					<path id="&lt;Path&gt;" class="s13" d="m225.8 357.7h-10.3v-5.1h10.3z"/>
					<path id="&lt;Path&gt;" class="s13" d="m326.6 357.7h-10.4v-5.1h10.4z"/>
					<path id="&lt;Path&gt;" class="s2" d="m225.8 322.7h-10.3v-4.6h10.3z"/>
					<path id="&lt;Path&gt;" class="s13" d="m225.8 322.7h-2.3v-4.6h2.3z"/>
					<path id="&lt;Path&gt;" class="s2" d="m326.6 322.7h-10.4v-4.6h10.4z"/>
					<path id="&lt;Path&gt;" class="s13" d="m326.6 322.7h-3.1v-4.6h3.1z"/>
					<path id="&lt;Path&gt;" class="s13" d="m225.8 322.7h-10.3v-0.6h10.3z"/>
					<path id="&lt;Path&gt;" class="s13" d="m326.6 322.7h-10.4v-0.6h10.4z"/>
					<g id="&lt;Group&gt;">
						<g id="&lt;Group&gt;">
							<path id="&lt;Path&gt;" class="s4" d="m223.4 322.7l-14.8 29.9h-11.4v-4.1l12.8-25.8z"/>
							<path id="&lt;Path&gt;" class="s4" d="m253.6 322.7l-14.8 29.9h-13.4l14.8-29.9z"/>
							<path id="&lt;Path&gt;" class="s4" d="m283.8 322.7l-14.8 29.9h-13.4l14.8-29.9z"/>
							<path id="&lt;Path&gt;" class="s4" d="m314 322.7l-14.8 29.9h-13.4l14.8-29.9z"/>
							<path id="&lt;Path&gt;" class="s4" d="m344.1 322.9l-14.7 29.7h-13.4l14.8-29.9z"/>
						</g>
					</g>
					<g id="&lt;Group&gt;">
						<g id="&lt;Group&gt;">
							<path id="&lt;Path&gt;" class="s7" d="m223.4 322.7l-3.6 7.3h-13.4l3.6-7.3z"/>
							<path id="&lt;Path&gt;" class="s7" d="m253.6 322.7l-3.6 7.3h-13.4l3.6-7.3z"/>
							<path id="&lt;Path&gt;" class="s7" d="m283.8 322.7l-3.6 7.3h-13.4l3.6-7.3z"/>
							<path id="&lt;Path&gt;" class="s7" d="m314 322.7l-3.6 7.3h-13.4l3.6-7.3z"/>
							<path id="&lt;Path&gt;" class="s7" d="m344.1 322.9l-3.5 7.1h-13.4l3.6-7.3z"/>
						</g>
					</g>
					<path id="&lt;Path&gt;" class="s16" d="m341.5 350.6h-140.2v-14.9h140.2z"/>
					<circle id="&lt;Path&gt;" class="s6" cx="220.4" cy="311.6" r="9.2"/>
					<circle id="&lt;Path&gt;" class="s4" cx="220.4" cy="311.6" r="4.2"/>
					<circle id="&lt;Path&gt;" class="s6" cx="321.4" cy="311.6" r="9.2"/>
					<circle id="&lt;Path&gt;" class="s4" cx="321.4" cy="311.6" r="4.2"/>
				</g>
				<g id="&lt;Group&gt;">
					<path id="&lt;Path&gt;" class="s6" d="m399.7 390.3h-46.8l7.2-17.4 2.9-7 0.8-1.9 1.2-3.1 0.3-0.7 2.9-7 0.5-1.2 5.1-12.4c0.9-2.2 4.1-2.2 5 0l5.1 12.4 0.5 1.2 2.9 7 0.3 0.7 1.3 3.1 0.8 1.9 2.9 7z"/>
					<path id="&lt;Path&gt;" class="s12" d="m396.6 382.8l3.1 7.5h-46.8l3.1-7.5z"/>
					<path id="&lt;Path&gt;" class="s2" d="m402.8 393.4h-53.6v-7.6h53.6z"/>
					<path id="&lt;Path&gt;" class="s13" d="m402.8 385.8v7.6h-11.6v-7.6z"/>
					<g id="&lt;Group&gt;">
						<path id="&lt;Path&gt;" class="s12" d="m397.9 385.8h-6.7l-5.3-12.9-2.8-7-0.8-1.9-1.3-3.1-0.3-0.6-2.9-7-0.5-1.3-4.3-10.4 0.8-2c0.9-2.2 4.1-2.2 5 0l5.1 12.4 0.5 1.3 2.9 7 0.3 0.6 1.3 3.1 0.8 1.9 2.9 7z"/>
						<g id="&lt;Group&gt;">
							<path id="&lt;Path&gt;" class="s4" d="m387.3 360.2h-22l2.9-7h16.2z"/>
							<path id="&lt;Path&gt;" class="s4" d="m392.6 372.9h-32.5l2.9-7h26.7z"/>
							<path id="&lt;Path&gt;" class="s7" d="m387.3 360.2h-6.6l-2.9-7h6.6z"/>
							<path id="&lt;Path&gt;" class="s7" d="m392.6 372.9h-6.7l-2.8-7h6.6z"/>
						</g>
					</g>
				</g>
				<g id="&lt;Group&gt;">
					<path id="&lt;Path&gt;" class="s3" d="m49.3 220.2c-4.1 0-7.3-3.4-7.1-7.4q0-0.1 0-0.2c0.6-7.4 6.7-13.4 14.1-13.7 2.9-0.2 5.6 0.5 7.9 1.8q0-0.5 0-1.1c0-8.2 6.6-14.8 14.8-14.8 7.8 0 14.2 6 14.8 13.6q0.5 0 0.9-0.1c7.7 0 14 6.3 14 14q0 1-0.1 1.9c-0.5 3.5-3.5 6-7 6z"/>
					<path id="&lt;Path&gt;" class="s3" d="m381.7 231.2c-9.9 0-11.9-14.4-2.3-16.9q2.1-0.5 4.4-0.5c2.7 0 5.2 0.6 7.5 1.7 1.2-9.3 9.2-16.5 18.8-16.5 9.4 0 17.2 6.9 18.7 15.9 1.7-0.6 3.6-0.9 5.6-0.9q0.5 0 0.9 0c11 0.6 10.4 17.2-0.6 17.2z"/>
					<path id="&lt;Path&gt;" class="s3" d="m249.2 149.3c-10 0-12-14.3-2.3-16.8q2.1-0.6 4.3-0.6c2.7 0 5.3 0.6 7.6 1.7 1.2-9.2 9.1-16.4 18.7-16.4 9.4 0 17.2 6.9 18.7 15.8 1.8-0.5 3.7-0.8 5.7-0.8q0.4 0 0.9 0c11 0.5 10.4 17.1-0.7 17.1z"/>
					<circle id="&lt;Path&gt;" class="s6" cx="126.4" cy="153.6" r="26.5"/>
					<path id="&lt;Path&gt;" class="s14" d="m152.9 153.6c0 14.6-11.8 26.4-26.5 26.4-5.3 0-10.3-1.6-14.5-4.3q0.1 0 0.3 0c14.6 0 26.4-11.9 26.4-26.5 0-9.2-4.7-17.4-11.9-22.1 14.5 0.1 26.2 11.9 26.2 26.5z"/>
				</g>
			</g>
		</g>
	</g>
</svg>