<svg version="1.2" xmlns="http://www.w3.org/2000/svg" viewBox="0 0 130 220" width="130" height="220">
	<title>medal-svg</title>
	<style>
		.s0 { fill: #ffc100 } 
		.s1 { fill: #000000 } 
		.s2 { fill: #263238 } 
		.s3 { fill: #fafafa } 
	</style>
	<g id="freepik--Starts--inject-2">
		<path id="Layer" class="s0" d="m117.4 113.1l0.3 1q0.1 0.2 0.2 0.3 0.1 0.2 0.2 0.3 0.1 0.2 0.3 0.3 0.2 0.1 0.3 0.1l1 0.3-1 0.4q-0.1 0-0.3 0.1-0.1 0.1-0.2 0.2-0.1 0.2-0.2 0.3-0.1 0.1-0.2 0.3l-0.3 1.1-0.5-1.2q0-0.1-0.1-0.3-0.1-0.1-0.2-0.2-0.1-0.1-0.3-0.2-0.1-0.1-0.3-0.1l-1-0.4 1-0.3q0.2-0.1 0.3-0.1 0.2-0.1 0.3-0.2 0.1-0.1 0.2-0.3 0.1-0.1 0.1-0.3z"/>
		<path id="Layer" class="s0" d="m19.1 123l0.3 1q0.1 0.2 0.2 0.3 0.1 0.2 0.2 0.3 0.1 0.2 0.3 0.3 0.1 0 0.3 0.1l1 0.3-1 0.4q-0.1 0-0.3 0.1-0.1 0.1-0.2 0.2-0.2 0.1-0.2 0.3-0.1 0.1-0.2 0.3l-0.4 1-0.4-1.1q0-0.1-0.1-0.3-0.1-0.1-0.2-0.2-0.1-0.1-0.3-0.2-0.1-0.1-0.3-0.1l-1-0.4 1-0.3q0.2-0.1 0.3-0.1 0.1-0.1 0.3-0.2 0.1-0.1 0.2-0.3 0.1-0.1 0.1-0.3z"/>
		<path id="Layer" class="s0" d="m2.5 175l0.3 1q0.1 0.2 0.2 0.3 0.1 0.2 0.2 0.3 0.2 0.2 0.3 0.3 0.2 0 0.3 0.1l1 0.3-1 0.4q-0.1 0-0.2 0.1-0.2 0.1-0.3 0.2-0.1 0.1-0.2 0.3-0.1 0.1-0.2 0.3l-0.3 1-0.4-1.1q-0.1-0.1-0.2-0.3-0.1-0.1-0.2-0.2-0.1-0.1-0.3-0.2-0.1-0.1-0.3-0.2l-1-0.3 1-0.3q0.2-0.1 0.3-0.1 0.2-0.1 0.3-0.2 0.1-0.2 0.2-0.3 0.1-0.1 0.1-0.3z"/>
		<path id="Layer" class="s0" d="m116.1 142.1l0.3 1q0.1 0.2 0.2 0.3 0.1 0.2 0.2 0.3 0.1 0.2 0.3 0.2 0.1 0.1 0.3 0.2l1 0.3-1 0.4q-0.1 0-0.3 0.1-0.1 0.1-0.2 0.2-0.2 0.1-0.2 0.3-0.1 0.1-0.2 0.3l-0.4 1-0.4-1.1q0-0.1-0.1-0.3-0.1-0.1-0.2-0.2-0.1-0.1-0.3-0.2-0.1-0.1-0.3-0.2l-1-0.3 1-0.3q0.2-0.1 0.3-0.2 0.1 0 0.3-0.1 0.1-0.2 0.2-0.3 0.1-0.1 0.1-0.3z"/>
		<path id="Layer" class="s0" d="m113 4.5l1.3 4.3q0.2 0.7 0.6 1.3 0.4 0.6 0.9 1.1 0.5 0.6 1.1 1 0.7 0.3 1.4 0.6l4.2 1.3-4.3 1.4q-0.6 0.3-1.2 0.6-0.6 0.4-1.1 0.9-0.4 0.4-0.8 1-0.4 0.6-0.6 1.2l-1.5 4.4-1.7-4.6q-0.3-0.6-0.6-1.2-0.4-0.6-0.9-1-0.5-0.5-1-0.9-0.6-0.3-1.3-0.5l-4.1-1.4 4-1.4q0.7-0.2 1.2-0.5 0.6-0.4 1.1-0.8 0.4-0.5 0.8-1 0.4-0.6 0.6-1.2z"/>
		<path id="Layer" class="s0" d="m16.3 197.2l1.3 4.3q0.2 0.6 0.6 1.3 0.3 0.6 0.9 1.1 0.5 0.5 1.1 0.9 0.6 0.4 1.3 0.6l4.3 1.3-4.3 1.5q-0.6 0.2-1.2 0.6-0.6 0.3-1.1 0.8-0.5 0.5-0.9 1.1-0.3 0.5-0.5 1.2l-1.5 4.3-1.7-4.5q-0.3-0.6-0.6-1.2-0.4-0.6-0.9-1-0.5-0.5-1-0.9-0.6-0.3-1.3-0.5l-4.1-1.4 4-1.3q0.7-0.3 1.2-0.6 0.6-0.3 1.1-0.8 0.5-0.4 0.8-1 0.4-0.5 0.6-1.2z"/>
		<path id="Layer" class="s0" d="m24.8 16.4l0.5 1.8q0.1 0.3 0.3 0.5 0.1 0.3 0.3 0.5 0.2 0.2 0.5 0.4 0.3 0.1 0.5 0.2l1.8 0.5-1.8 0.6q-0.2 0.1-0.5 0.3-0.2 0.1-0.4 0.3-0.2 0.2-0.4 0.5-0.1 0.2-0.2 0.5l-0.6 1.8-0.7-1.9q-0.1-0.3-0.3-0.5-0.1-0.2-0.3-0.4-0.2-0.2-0.5-0.4-0.2-0.1-0.5-0.2l-1.7-0.6 1.7-0.5q0.3-0.1 0.5-0.2 0.2-0.2 0.4-0.4 0.2-0.2 0.4-0.4 0.1-0.2 0.2-0.5z"/>
		<path id="Layer" class="s0" d="m70.9 212.5l0.5 1.7q0.1 0.3 0.3 0.6 0.1 0.2 0.3 0.4 0.2 0.3 0.5 0.4 0.3 0.2 0.5 0.3l1.8 0.5-1.8 0.6q-0.3 0.1-0.5 0.2-0.2 0.2-0.4 0.4-0.2 0.2-0.4 0.4-0.1 0.3-0.2 0.5l-0.7 1.8-0.7-1.8q0-0.3-0.2-0.5-0.2-0.3-0.4-0.5-0.2-0.2-0.4-0.3-0.2-0.2-0.5-0.2l-1.7-0.6 1.7-0.6q0.2 0 0.5-0.2 0.2-0.1 0.4-0.3 0.2-0.2 0.3-0.4 0.2-0.3 0.3-0.5z"/>
	</g>
	<g id="freepik--Medal--inject-2">
		<path id="Layer" class="s0" d="m71.4 105.8l-14.9 98.5-11.6-25.5-21.2 9.4c0 0 24.6-82.6 24.6-83.6z"/>
		<path id="Layer" class="s0" d="m66.3 108.1l23.5-7.3 23.8 93.1-23.8-17-18.4 26-5.1-94.8z"/>
		<g id="Layer" style="opacity: .5">
			<path id="Layer" class="s1" d="m47.5 101.9h42.9l2 8.9 1.1 4.5q-0.3 0.2-0.7 0.4-0.4 0.1-0.9 0.2-0.4 0.1-0.8 0.1-0.4 0-0.8 0-0.4-0.1-0.7-0.2-0.4 0-0.8 0-0.3 0-0.7 0-0.4 0-0.7 0.1c-2.2 0.5-3.1 3.2-5.2 4-3.2 1.2-6.6-2.7-9.9-1.7-2.3 0.8-3.8 4.2-6.3 3.8-2.2-0.3-3-3-4.8-4.2-1.8-1.2-4.2-0.5-6.4-0.6q-1.3-0.1-2.6-0.6-1.3-0.5-2.4-1.3-1.1-0.9-1.9-2-0.8-1.2-1.2-2.5z"/>
		</g>
		<path id="Layer" class="s0" d="m72.5 35.7q0.3-0.7 0.6-1.4 0.3-0.7 0.5-1.4 0.2-0.7 0.4-1.4c0.8-3.6 2-9.2 3-13.3q0.8 0 1.5 0.1 0.7 0.2 1.3 0.6 0.6 0.3 1.2 0.8 0.5 0.5 0.9 1.1 0.2 0.3 0.3 0.5 0.2 0.3 0.5 0.5 0.2 0.2 0.5 0.4 0.2 0.2 0.5 0.4l-0.1 0.1q-2.7 7.3-5.5 14.5 0 0.2 0 0.3-0.1 0.1-0.1 0.2 0 0.2 0 0.3-0.1 0.1-0.1 0.2-0.7-0.2-1.5-0.4-0.7-0.2-1.5-0.4-0.8-0.1-1.6-0.2-0.8-0.1-1.5-0.2 0.4-0.6 0.7-1.3z"/>
		<path id="Layer" class="s0" d="m45.4 81.2q-0.2 0-0.3 0-0.2 0-0.3 0-0.2 0.1-0.3 0.1c-5.4 1.4-13.6 4.5-19.9 6.8q-0.1 0-0.2-0.1-0.1-0.1-0.2-0.1-0.1-0.1-0.1-0.2-0.1-0.1-0.2-0.1c-1.8-2.2 0.3-5.3 0.9-8.1l5-1.1-2.2 0.6q-0.3 0.1-0.6 0.2-0.3 0.1-0.7 0.2-0.3 0.1-0.6 0.2-0.3 0.2-0.6 0.3 0.3 0 0.7-0.1 0.3 0 0.6-0.1 0.4-0.1 0.7-0.2 0.3 0 0.6-0.1c1.6-0.4 3.8-1 6.3-1.6l3.4-1q0.3-0.1 0.7-0.2 0.3-0.1 0.7-0.2 0.3-0.1 0.7-0.2 0.3-0.1 0.7-0.3 0.1 0 0.2-0.1 0.1 0 0.2-0.1 0.1 0 0.2-0.1 0.1-0.1 0.2-0.1l0.4-0.2q0.2 0 0.3-0.1 0.1 0 0.3-0.1 0.1-0.1 0.2-0.2 0.1-0.1 0.2-0.2 0.3 0.9 0.7 1.7 0.3 0.8 0.7 1.7 0.5 0.8 0.9 1.5 0.5 0.8 1 1.6-0.2 0-0.3 0z"/>
		<path id="Layer" class="s0" d="m62.1 19.2c0.7-0.7 1.7-1 3.4-0.7 2.2 0.3 3.2 2.9 4.2 4.1-0.1 0.6-0.2 3.8-0.3 7.5q0 0.6 0 1.1l-0.3 5.3q0 0.2 0 0.4-0.9 0-1.8 0-0.9 0.1-1.8 0.2-0.8 0.1-1.7 0.3-0.9 0.2-1.7 0.4c0-0.3 0-0.6 0-0.8q0-0.3 0-0.7c-0.1-5.2 0.1-11.9 0-17.1z"/>
		<path id="Layer" class="s0" d="m30.1 52.8c1.9 0.8 3.8 1.6 5.6 2.4q-0.6-0.2-1.3-0.5c-1.6-0.6-3-1.3-4.3-1.9z"/>
		<path id="Layer" class="s0" d="m40.7 63.8c-5.4-3.3-13.3-5.6-19.8-7.4q0-0.3 0.1-0.7 0-0.3 0.1-0.6 0.1-0.3 0.2-0.6 0.1-0.3 0.3-0.5c0.9-1.3 2.1-2.3 2.9-3.6l1.2 0.5c0.3 0.3 1.1 0.7 2.2 1.3q0.8 0.4 1.6 0.8 0.8 0.4 1.5 0.8 0.8 0.4 1.6 0.7 0.9 0.4 1.7 0.7 0.7 0.3 1.4 0.5 0.8 0.3 1.5 0.5 0.8 0.2 1.5 0.3 0.8 0.2 1.6 0.3 0.9 0.3 1.7 0.6-0.2 0.8-0.4 1.6-0.2 0.8-0.4 1.6-0.1 0.8-0.2 1.6-0.1 0.9-0.1 1.7z"/>
		<path id="Layer" class="s0" d="m41 52.9q-1.9-1.3-3.9-2.6-1.9-1.3-3.9-2.5-2-1.3-4-2.5-2-1.2-4-2.3 0-0.3 0.1-0.6 0.1-0.2 0.3-0.5 0.1-0.3 0.3-0.5 0.2-0.2 0.4-0.4c1.7-1.4 4.6-0.4 6.2-1.9q0.1-0.1 0.2-0.3 0.1-0.1 0.2-0.3 0.1-0.1 0.1-0.3 0.1-0.1 0.1-0.3c1.1 0.9 2.2 2 3.5 3v0.1q1 1.1 2.1 2.1 1.1 1 2.2 2 1.1 0.9 2.3 1.8 1.2 0.9 2.4 1.7l0.5 0.3q-0.5 0.6-0.9 1.3-0.4 0.6-0.8 1.3-0.4 0.7-0.7 1.3-0.3 0.7-0.6 1.4c-0.6-0.3-1.3-0.8-2.1-1.3z"/>
		<path id="Layer" class="s0" d="m44.5 42.6q-0.9-1.4-1.8-2.8-1-1.4-2-2.8-1-1.4-2-2.7-1.1-1.3-2.2-2.6c1.5-0.3 3.1-0.3 4.4-1q0.3-0.2 0.6-0.5 0.3-0.2 0.5-0.5 0.3-0.3 0.5-0.6 0.2-0.4 0.3-0.7c0.6 0.8 1.2 1.6 1.9 2.6-0.4-0.5-0.8-0.9-0.7-0.8q0.1 0.3 0.2 0.5 0.2 0.3 0.3 0.5 0.2 0.2 0.3 0.4 0.2 0.3 0.3 0.5c0.8 1.1 1.9 2.6 3.2 4.2 0.8 1.1 1.7 2.1 2.4 2.9 0.8 1.1 1.6 2.1 2.2 2.9q-0.8 0.5-1.5 1.1-0.7 0.5-1.3 1.1-0.7 0.6-1.3 1.3-0.7 0.6-1.2 1.3c-0.5-0.7-1.1-1.5-1.8-2.5z"/>
		<path id="Layer" class="s0" d="m54.6 40.7c-1.9-4.8-5.3-12.3-7.6-17.8 2.2-0.9 5-1.1 6.6 0.4q0.4 0.3 0.8 0.5 0.5 0.3 0.9 0.4 0.5 0.2 1 0.3 0.5 0 1 0l0.1 0.4q0 0.2 0 0.5 0 0.3 0 0.6 0 0.2 0.1 0.5 0 0.3 0 0.5c0.2 1.5 0.4 3.3 0.9 5.5 0.4 2.1 0.8 3.9 1.2 5.3q0.1 0.4 0.2 0.7-0.7 0.2-1.3 0.5-0.7 0.3-1.3 0.6-0.7 0.3-1.3 0.6-0.6 0.3-1.3 0.7 0-0.1 0-0.2z"/>
		<path id="Layer" class="s0" d="m47.3 47.2l-0.1-0.1 0.1 0.1z"/>
		<path id="Layer" class="s0" d="m41.6 73.1q-0.2-0.1-0.3-0.1-0.2 0-0.4 0-0.1-0.1-0.3 0-9.9-0.4-19.9-0.6v-0.2c-0.9-1.5-0.3-3.4 0.6-5 0.3-0.5 0.6-1 1-1.5l1.5 0.1q0.6 0 1.7 0.1c1.5 0.2 3.7 0.4 6.1 0.4q1.2 0 2.3 0c2.5 0.1 4.8 0.1 6.8 0h0.2q0 0.9 0.1 1.7 0.1 0.9 0.2 1.8 0.1 0.8 0.3 1.7 0.2 0.8 0.4 1.7-0.1-0.1-0.3-0.1z"/>
		<path id="Layer" class="s0" d="m50.3 88.3q-0.4 0.2-0.8 0.5-0.4 0.2-0.8 0.5-0.4 0.3-0.8 0.6l-11.9 8.9c-1.6-0.3-3-0.7-3.7-2.1-0.6-1.4-0.1-3.1-0.5-4.6 1.8-1.1 3.7-2.3 5.7-3.4-1 0.6-1.9 1.3-2.7 1.8q-0.2 0.1-0.5 0.3-0.3 0.2-0.5 0.4-0.3 0.2-0.5 0.4-0.2 0.2-0.5 0.4 0.3-0.1 0.6-0.3 0.3-0.1 0.6-0.3 0.3-0.1 0.5-0.3 0.3-0.1 0.6-0.3c1.3-0.8 3.1-2 5.1-3.3 2-1.3 3.8-2.4 5.1-3.4q0.1-0.1 0.2-0.2 0.1-0.1 0.1-0.2 0.1-0.1 0.2-0.2 0-0.1 0.1-0.2 0.1-0.1 0.2-0.2 0.1 0 0.2-0.2 0.1-0.1 0.2-0.2 0.1-0.1 0.2-0.2 0.5 0.7 1.1 1.4 0.6 0.7 1.2 1.3 0.6 0.6 1.3 1.2 0.6 0.6 1.4 1.2l-0.5 0.3q-0.4 0.2-0.9 0.4z"/>
		<path id="Layer" class="s0" d="m106.8 93.3l0.5 0.3q0 0.1 0 0.1 0 0-0.1 0 0 0 0 0 0 0 0 0.1l-1.6-1.3z"/>
		<path id="Layer" fill-rule="evenodd" class="s0" d="m91 84.3q0.2 0.2 0.3 0.4 0.2 0.2 0.4 0.4 0.1 0.2 0.3 0.4c3.4 3.6 8.8 9.8 12.9 14.2q-0.1 0.1-0.1 0.1-0.1 0.1-0.2 0.2 0 0.1-0.1 0.2-0.1 0.1-0.2 0.2c-2.2 2-6.4-0.1-8.5 2.1q-0.1 0-0.1 0.2-0.1 0.1-0.2 0.2-0.1 0.1-0.1 0.2-0.1 0.1-0.2 0.2c-1.1-2-2.5-4.3-3.8-6.5l-0.1-0.1-2-3.6q-0.2-0.3-0.5-0.7-0.2-0.4-0.4-0.7-0.3-0.4-0.6-0.7-0.2-0.3-0.5-0.6-0.1 0-0.1-0.1 0 0 0 0 0 0-0.1 0 0 0 0 0-0.2-0.3-0.3-0.5-0.2-0.2-0.4-0.4-0.2-0.2-0.4-0.4-0.2-0.3-0.4-0.5 0.7-0.5 1.4-1 0.7-0.5 1.3-1.1 0.7-0.6 1.3-1.2 0.6-0.6 1.1-1.3 0.2 0.2 0.3 0.4zm1.7 5.4q0.2 0.5 0.5 1 0.2 0.5 0.5 0.9 0.3 0.5 0.7 0.9 0.2 0.5 0.6 1 0.3 0.4 0.7 0.8 0.3 0.4 0.7 0.8 0.4 0.4 0.9 0.7-0.3-0.4-0.6-0.9-0.3-0.5-0.6-0.9-0.3-0.5-0.7-0.9-0.3-0.4-0.6-0.9-0.3-0.4-0.6-0.9-0.3-0.4-0.6-0.9-0.3-0.4-0.6-0.9-0.4-0.4-0.7-0.8 0.2 0.5 0.4 1z"/>
		<path id="Layer" class="s0" d="m69.9 23.2q0 0 0-0.1 0-0.1 0-0.1 0-0.1 0-0.1 0-0.1 0-0.2 0 0 0 0 0.1 0.1 0.1 0.1 0 0 0 0 0 0 0 0z"/>
		<path id="Layer" class="s0" d="m116.5 75.5c-0.9 2-3.8 3.2-4.6 5.4q-0.1 0.2-0.1 0.4 0 0.1-0.1 0.3 0 0.2 0 0.4 0 0.1 0 0.3l-0.9-0.4c-1.5-0.8-3.4-1.8-5.4-2.9q-1-0.6-2-1.2-1.1-0.5-2.1-1-1.1-0.6-2.2-1.1-1-0.5-2.1-1 0.3 0.3 0.6 0.5 0.4 0.2 0.7 0.4 0.3 0.2 0.7 0.4 0.3 0.2 0.7 0.4l-2.8-1.4-0.8-0.4q0.3-0.7 0.5-1.5 0.2-0.7 0.4-1.5 0.2-0.7 0.3-1.5 0.1-0.7 0.2-1.5c5.3 2 13 4.7 19 6.9z"/>
		<path id="Layer" class="s0" d="m92.9 81.1q0.4-0.6 0.7-1.2 0.4-0.6 0.7-1.2 0.3-0.7 0.7-1.3c4.6 3.5 10.6 9.8 15.8 14.3-1.1 0.6-2.3 1-3.3 1.7l-0.6-0.4c-1.5-1.2-3.8-2.8-6.2-4.6-2.5-1.7-4.7-3.3-6.4-4.4l-0.2-0.2c-0.8-0.5-1.5-1.1-2-1.5q0.4-0.6 0.8-1.2z"/>
		<path id="Layer" class="s0" d="m59.2 92.5q-0.1 0.1-0.3 0.2-0.1 0.1-0.2 0.2-0.1 0.1-0.2 0.2c-3.9 4.3-9.3 11.3-13.3 16.6q-0.2 0-0.4-0.1-0.1-0.1-0.3-0.2-0.1-0.1-0.2-0.2-0.2-0.1-0.3-0.2c-1.9-1.9-0.8-5.2-1.9-7.5q1.1-1.1 2.3-2.4c-0.2 0.3-0.5 0.6-0.3 0.5q0.2-0.2 0.4-0.3 0.2-0.2 0.5-0.3 0.2-0.2 0.4-0.4 0.1-0.2 0.3-0.4c1-0.9 2.4-2.2 3.7-3.6 1.3-1.4 2.4-2.7 3.2-3.7q0.7-0.8 1.2-1.5l0.2-0.1q0.6 0.4 1.2 0.7 0.7 0.4 1.3 0.7 0.7 0.3 1.3 0.6 0.7 0.3 1.4 0.6 0 0.1 0.1 0.1 0 0.1 0.1 0.2 0 0 0 0.1 0.1 0.1 0.1 0.2-0.1 0-0.3 0z"/>
		<path id="Layer" fill-rule="evenodd" class="s0" d="m74.3 93.3q1.7-0.3 3.4-0.8 1.7-0.5 3.3-1.3 1.5-0.7 3-1.6c1.2 5.9 4.2 14.4 7 21.3-1.6-0.3-3.5-1.3-5.3-1.4q-0.2 0-0.5 0.1-0.3 0-0.6 0-0.3 0.1-0.6 0.2-0.2 0.1-0.5 0.2c-0.5-2.2-1.1-4.6-1.8-7q-0.2-0.9-0.5-1.8c-0.7-2.2-1.3-4.2-1.8-5.6q-0.1-0.3-0.2-0.6-0.1-0.3-0.2-0.6-0.2-0.3-0.3-0.6-0.1-0.3-0.3-0.5 0 0 0.1 0.5l-0.3-0.7c-0.3 5.7 0.1 13.7 0.5 20.1-1.7 1.3-3.4 2.2-5.4 1.6q-0.4-0.3-0.9-0.5-0.4-0.3-0.9-0.6-0.4-0.3-0.8-0.6-0.4-0.3-0.8-0.7c0.2-1.7 0.3-3.6 0.5-5.5 0.2-1.5 0.4-3.2 0.7-5q0.2-2 0.4-3.8 0.1-0.4 0.1-0.8 0.1-0.4 0-0.8 0-0.4-0.1-0.8 0-0.3-0.2-0.7 0-0.2 0-0.4 0-0.1-0.1-0.3 0-0.2-0.1-0.3-0.1-0.2-0.2-0.3 1.7-0.1 3.4-0.4zm0.5 9.9q0.1-0.8 0-1.5 0-0.7-0.1-1.4-0.1-0.7-0.3-1.4-0.1 0.4-0.1 0.7-0.1 0.4-0.1 0.7 0 0.4 0.1 0.7 0 0.4 0 0.7 0 0.4 0 0.8 0 0.3 0 0.7 0 0.3 0.1 0.7 0.1 0.3 0.1 0.7 0.2-0.7 0.3-1.4z"/>
		<path id="Layer" class="s0" d="m67.8 94.3q-0.2 0.3-0.4 0.6-0.1 0.3-0.2 0.6-0.1 0.3-0.2 0.6c-1.8 5.1-3.5 12.8-5.2 18.4h-0.3c-3 0.4-4.5-3.7-7.3-4.8q-0.1 0-0.2-0.1-0.2 0-0.3-0.1-0.1 0-0.3 0-0.1 0-0.2 0c0.3-0.4 0.7-1.1 1.3-2.1q0.5-0.7 1-1.5 0.4-0.7 0.9-1.5 0.4-0.8 0.8-1.6 0.5-0.8 0.9-1.6 0.9-1.9 1.6-3.6 0.1-0.3 0.2-0.6 0.1-0.3 0.2-0.6 0.1-0.4 0.1-0.7 0.1-0.3 0.1-0.7 0-0.1 0-0.2 0.1-0.1 0.1-0.2 0-0.1 0-0.3 0-0.1 0-0.2c0.1-0.6-0.1-1.5-0.6-1.6q-0.1 0-0.1-0.1 0 0 0 0 0 0 0-0.1 0 0 0 0-0.2-0.2-0.3-0.3 1.1 0.4 2.2 0.7 1.1 0.3 2.2 0.5 1.1 0.2 2.2 0.3 1.1 0.2 2.3 0.2 0 0-0.1 0 0 0 0 0 0 0.1 0 0.1 0 0 0 0-0.2 0.2-0.4 0.5z"/>
		<path id="Layer" fill-rule="evenodd" class="s0" d="m91.5 47.6q-0.7-0.9-1.5-1.7-0.7-0.8-1.6-1.6-0.8-0.7-1.7-1.4 2.3-1.4 4.7-2.9 0 0 0 0-0.5 0.4-0.9 0.7 0.5-0.2 1-0.4 0.5-0.2 1-0.4 0.5-0.3 1-0.6 0.4-0.3 0.9-0.6 0.5-0.3 0.9-0.6 0.5-0.3 0.9-0.6 0.4-0.4 0.8-0.8 0.5-0.3 0.8-0.7-0.4 0.2-0.9 0.5c2.7-1.8 5.3-3.6 7.6-5.3q0 0 0.1 0 0 0.1 0 0.1 0.1 0.1 0.1 0.1 0.1 0 0.1 0.1c2.1 2.5-0.2 6.7 1.5 9.5l-1.7 1c-0.4 0.1-1 0.4-1.9 0.9-1.3 0.6-3 1.5-4.9 2.7q-1.4 0.8-2.6 1.7-0.2 0.1-0.4 0.2-0.2 0.2-0.3 0.4-0.2 0.1-0.4 0.3-0.1 0.2-0.2 0.4-0.5 0.4-1 0.8-0.7-0.9-1.4-1.8zm1.7-8.8q-0.5 0.3-0.9 0.6-0.5 0.3-0.9 0.6c1.8-1.1 3.7-2.3 5.5-3.5q0 0 0 0-0.5 0.3-1 0.5-0.4 0.3-0.9 0.6-0.4 0.3-0.9 0.7-0.5 0.2-0.9 0.5z"/>
		<path id="Layer" class="s0" d="m98.1 60.7c5.1-0.2 13.3-0.7 19.5-1q0.1 0.3 0.2 0.7 0.1 0.4 0.1 0.7 0.1 0.4 0 0.8 0 0.3-0.2 0.7c-0.6 1.8-3 2.7-3.4 4.6-1.7-0.2-3.9-0.4-6.3-0.6-2.7-0.2-5-0.3-6.7-0.3h-0.6c-0.9-0.1-1.7-0.2-2.5-0.2h-0.5q0-0.4 0-0.8 0-0.6 0-1.2-0.1-0.5-0.1-1.1 0-0.6-0.1-1.2-0.1-0.5-0.2-1.1z"/>
		<path id="Layer" class="s0" d="m90.8 24.9q0.1-0.3 0.2-0.6 0.2-0.2 0.2-0.5 0.1-0.3 0.1-0.6 0 0 0 0 0-0.1 0-0.1 0 0 0 0 0 0 0 0 0.2 0 0.4 0 0.2 0.1 0.4 0.1 0.2 0.1 0.4 0.2 0.2 0.1 0.3 0.2c1.5 0.9 1.8 3.1 3 4.3q0.2 0.2 0.4 0.3 0.2 0.2 0.4 0.3 0.2 0.1 0.4 0.2 0.2 0.1 0.4 0.2c-2.9 3-6.3 6.7-9.3 10.3-0.6 0.6-1.1 1.3-1.6 1.8q-0.1 0.1-0.2 0.2 0 0.1-0.1 0.2-0.1 0.2-0.2 0.3 0 0.1-0.1 0.3l-0.1 0.2q-0.7-0.6-1.5-1-0.8-0.5-1.6-0.9-0.7-0.5-1.6-0.8-0.8-0.4-1.6-0.7 0.1-0.1 0.2-0.2 0.1-0.1 0.2-0.2 0.1 0 0.2-0.1 0.1-0.1 0.1-0.2l10.2-12.8q0.2-0.2 0.4-0.4z"/>
		<path id="Layer" class="s0" d="m96.2 56.1q-0.3-0.9-0.6-1.7-0.4-0.8-0.8-1.6-0.3-0.7-0.8-1.5c4.8-1 12.3-4.5 17.7-6.7q0.2 0.2 0.3 0.3 0.2 0.1 0.3 0.3 0.1 0.1 0.2 0.3 0.1 0.1 0.2 0.3c1.1 1.7 0.5 3.9 0.5 6l-2.6 0.9c0.5-0.2 0.9-0.4 0.8-0.4q-0.3 0-0.6 0.1-0.3 0-0.5 0.1-0.3 0.1-0.5 0.2-0.3 0.1-0.6 0.2c-1.2 0.4-3 1-4.9 1.7-1.9 0.7-3.6 1.4-4.9 1.9q-0.2 0-0.5 0.1-0.2 0.1-0.5 0.3-0.2 0.1-0.4 0.2-0.3 0.1-0.5 0.2l-0.8 0.4q-0.3-0.8-0.5-1.6z"/>
		<path id="Layer" class="s0" d="m114.2 67.7l-2.2-0.2q1.1 0.1 2.2 0.2z"/>
		<path id="Layer" class="s0" d="m59.9 37.1q0.2 0.7 0.4 1.2l-0.2 0.1q0-0.3-0.1-0.7c-0.1-0.2-0.1-0.4-0.1-0.6z"/>
		<path id="Layer" class="s0" d=""/>
		<path id="Layer" class="s1" d="m85.8 42.2l0.1-0.2q0 0 0 0 0 0.1 0 0.1 0 0 0 0.1 0 0 0 0z"/>
		<path id="Layer" class="s0" d="m92.9 49.4q0.5-0.4 1-0.8-0.1 0-0.1 0.1-0.1 0.1-0.1 0.2-0.1 0.1-0.1 0.2 0 0.1-0.1 0.1 0 0.2-0.1 0.3 0 0.1 0 0.2 0 0.1 0 0.2-0.1 0.2-0.1 0.3c-0.1-0.3-0.3-0.5-0.4-0.8z"/>
		<path id="Layer" class="s1" d="m110.8 81.9l0.9 0.4v0.1z"/>
		<path id="Layer" class="s1" d="m92 82.4l0.1-0.1c0.5 0.4 1.2 0.9 2 1.5-1-0.7-1.8-1.1-2.1-1.4z"/>
		<path id="Layer" class="s1" d="m91.3 96.8c1.4 2.2 2.7 4.5 3.9 6.5l-0.1 0.2-0.2-0.4c-0.9-1.6-2.1-3.9-3.6-6.3z"/>
		<path id="Layer" class="s0" d="m70.9 93.7q0.1 0.1 0.2 0.3 0.1 0.1 0.2 0.3 0 0.2 0.1 0.3 0 0.2 0 0.4c-0.1-0.1-0.1-0.1-0.1-0.2q-0.1-0.2-0.2-0.3-0.1-0.2-0.2-0.3-0.1-0.2-0.3-0.3-0.1-0.1-0.3-0.2z"/>
		<path id="Layer" class="s0" d="m60.4 94.1q0 0.1 0 0.2 0 0.2 0 0.3 0 0.1-0.1 0.2 0 0.1 0 0.2 0 0 0-0.1 0-0.1 0-0.2 0-0.1 0-0.1 0-0.1 0-0.2 0-0.2-0.1-0.5 0-0.2-0.1-0.5 0-0.2-0.1-0.5-0.1-0.2-0.2-0.4c0.5 0.1 0.7 1 0.6 1.6z"/>
		<path id="Layer" class="s1" d="m53.9 89.5q-0.6 0.7-1.3 1.4 0.1-0.1 0.2-0.2c0.5-0.6 0.9-1.2 1.1-1.4h0.1z"/>
		<path id="Layer" class="s1" d="m41.9 57.4q-0.8-0.3-1.7-0.6l0.8 0.2q0.2 0 0.3 0 0.2-0.1 0.3-0.1 0.2 0 0.3-0.1 0.1 0 0.2-0.1c0 0.3-0.1 0.5-0.2 0.7z"/>
		<path id="Layer" class="s1" d="m52.8 42.1c-0.6-0.8-1.3-1.8-2.1-2.9l1 1.1q0.1 0.2 0.3 0.4 0.2 0.2 0.4 0.4 0.2 0.2 0.4 0.4 0.2 0.2 0.4 0.3z"/>
		<path id="Layer" class="s1" d="m62 37.6q0.1-0.1 0.1-0.2 0-0.1 0-0.2 0-0.1 0-0.2 0 0.4 0 0.8h-0.1q0-0.1 0-0.2z"/>
		<path id="Layer" class="s1" d="m69.2 36.5l0.3-5.3c-0.1 2.5-0.1 4.5 0 5.7h-0.4q0-0.2 0.1-0.4z"/>
		<path id="Layer" fill-rule="evenodd" class="s0" d="m83.6 22.7l0.1-0.1q0 0 0.1 0 0 0 0 0.1 0.1 0 0.1 0 0 0 0 0c-0.6 1.5-1.6 3.9-2.6 6.7q-0.4 1-0.8 2.1-0.4 1-0.7 2.1-0.4 1.1-0.7 2.1-0.4 1.1-0.7 2.2 0.5-1 1-2 0.4-1.1 0.8-2.1 0.5-1.1 0.9-2.1 0.4-1.1 0.7-2.2c1-2.7 1.9-5.1 2.4-6.7q0.2 0.1 0.3 0.2 0.2 0 0.4 0.1 0.1 0 0.3 0.1 0.2 0.1 0.3 0.1c1.8 0.6 3.9-0.3 5.8-0.2q0 0 0 0 0 0.1 0 0.1 0 0 0 0 0 0 0 0 0 0.3-0.1 0.6 0 0.3-0.2 0.6-0.1 0.2-0.2 0.5-0.2 0.2-0.4 0.4l-10.2 12.8q0 0.1-0.1 0.2-0.1 0.1-0.2 0.2-0.1 0-0.2 0.1-0.1 0.1-0.2 0.2c-0.6-0.2-1-0.4-1.6-0.6q0-0.1 0.1-0.2 0-0.2 0-0.3 0-0.1 0.1-0.2 0-0.2 0-0.3 2.8-7.2 5.5-14.5zm-0.9 11.2q-0.4 0.5-0.7 0.9-0.4 0.5-0.7 1-0.3 0.4-0.6 0.9 0.5-0.3 0.9-0.7 0.4-0.4 0.8-0.8 0.4-0.5 0.7-0.9 0.4-0.5 0.7-0.9 0.4-0.5 0.8-0.9 0.3-0.5 0.6-0.9 0.3-0.5 0.6-1 0.3-0.5 0.6-1-0.4 0.4-0.8 0.8-0.4 0.4-0.8 0.8-0.4 0.5-0.7 0.9-0.4 0.5-0.7 0.9-0.4 0.5-0.7 0.9z"/>
		<path id="Layer" class="s0" d="m88.2 39.2c2.9-3.6 6.4-7.3 9.2-10.3 1.7 0.7 3.8 0.7 5.4 1.2q0.3 0.1 0.5 0.2 0.2 0.1 0.4 0.2 0.2 0.2 0.4 0.3 0.2 0.2 0.4 0.3c-5.2 3.9-12 8.3-17.8 11.7l-0.6-0.4q0.1-0.2 0.1-0.3 0.1-0.2 0.2-0.3 0.1-0.2 0.2-0.3 0.1-0.2 0.2-0.3c1.1-1.1 2.7-2.8 4.4-4.6 1.7-1.8 3.2-3.5 4.2-4.7q0.3-0.3 0.5-0.5 0.2-0.3 0.4-0.5 0.2-0.3 0.4-0.6 0.2-0.2 0.4-0.5-0.3 0.2-0.5 0.4-0.3 0.2-0.5 0.4-0.2 0.3-0.5 0.5-0.2 0.3-0.4 0.5c-1.2 1.2-2.7 2.8-4.4 4.6-1 1.1-1.9 2.1-2.6 3z"/>
		<path id="Layer" fill-rule="evenodd" class="s0" d="m104.6 42l1.7-1c1.2 1.8 3.7 2.4 5.4 3.7-5.5 2.2-12.9 5.6-17.7 6.6l-0.4-0.6q0-0.2 0-0.4 0-0.1 0-0.3 0.1-0.1 0.1-0.3 0.1-0.1 0.1-0.3c0.6-1.3 2.4-2.2 4.3-3.3 1.8-1.2 3.5-2.1 4.8-2.9q0.2-0.1 0.5-0.2 0.2-0.2 0.5-0.3 0.2-0.2 0.5-0.4 0.2-0.1 0.5-0.3c-0.1-0.1-0.2 0-0.3 0zm-3.3 5.9q0.4-0.1 0.8-0.2 0.3-0.2 0.7-0.3 0.3-0.2 0.6-0.4 0.4-0.2 0.7-0.4-0.8 0.1-1.5 0.4-0.8 0.2-1.5 0.5-0.7 0.3-1.4 0.7-0.6 0.4-1.2 0.9 0.3-0.1 0.7-0.2 0.4-0.1 0.7-0.3 0.4-0.1 0.7-0.3 0.4-0.1 0.7-0.3z"/>
		<path id="Layer" class="s0" d="m110.6 52.6l2.6-0.8q0 0.2 0 0.4 0 0.2 0 0.4 0.1 0.2 0.1 0.4 0.1 0.2 0.1 0.4c0.5 1.7 1.8 3 2.9 4.3q0.2 0.3 0.4 0.5 0.1 0.2 0.3 0.5 0.1 0.3 0.3 0.5 0.1 0.3 0.2 0.5c-6.1 0.4-14.4 0.9-19.4 1h-0.8q-0.1-0.3-0.1-0.7-0.1-0.4-0.2-0.8-0.1-0.3-0.2-0.7-0.1-0.4-0.2-0.8l0.9-0.3q0.2-0.1 0.5-0.1 0.3-0.1 0.5-0.1 0.3-0.1 0.6-0.2 0.2-0.1 0.5-0.2c1.2-0.4 3-1 4.9-1.7 1.9-0.7 3.6-1.4 4.9-1.9z"/>
		<path id="Layer" class="s0" d="m112 67.5q1.1 0.1 2.2 0.2c-0.1 2.3 2.8 4.1 2.7 6.5q0 0.2 0 0.4-0.1 0.1-0.1 0.3 0 0.2-0.1 0.3-0.1 0.2-0.1 0.3c-6.1-2.2-13.8-4.9-19.1-6.9 0.1-0.8 0.2-1.6 0.2-2.4h0.4q1.3 0 2.6 0.1-0.3 0-0.6 0-0.3 0-0.6 0-0.2 0-0.5 0-0.3 0-0.5 0.1 0.3 0 0.6 0.1 0.4 0 0.7 0.1 0.4 0 0.7 0 0.4 0.1 0.7 0.1l6.7 0.5z"/>
		<path id="Layer" class="s0" d="m105.2 79.4c2.6 1.4 5 2.7 6.5 3.4 0.3 2.5 2 5.2 0.7 7.4q-0.1 0.2-0.3 0.4-0.2 0.2-0.4 0.4-0.2 0.2-0.4 0.4-0.2 0.1-0.5 0.3c-5.1-4.5-11.2-10.8-15.8-14.3q0.2-0.3 0.3-0.7 0.2-0.3 0.3-0.7 0.1-0.3 0.3-0.7 0.1-0.3 0.2-0.7l0.8 0.4 2.8 1.4c1.4 0.8 3.4 1.9 5.5 3z"/>
		<path id="Layer" class="s0" d="m105.6 92.5l1.6 1.3q-0.1 0-0.1 0.1-0.1 0-0.2 0.1 0 0.1-0.1 0.2-0.1 0-0.1 0.1c-1.1 1.5-0.9 3.8-1.8 5.4-4.1-4.5-9.5-10.6-12.9-14.2q-0.2-0.2-0.4-0.4-0.1-0.2-0.3-0.4-0.2-0.2-0.3-0.4-0.1-0.2-0.3-0.4 0.6-0.6 1.2-1.4c0.3 0.3 1.1 1 2.3 1.8 1.5 1.2 3.8 2.8 6.2 4.6 1.9 1.3 3.7 2.6 5.2 3.6z"/>
		<path id="Layer" class="s0" d="m94.7 103.3l0.4 0.6c-0.7 2.2 0.1 5-1.7 6.4q-0.3 0.2-0.5 0.3-0.3 0.1-0.6 0.2-0.3 0.1-0.6 0.1-0.3 0-0.6-0.1c-2.9-6.8-5.9-15.4-7-21.2q0.8-0.5 1.6-1.1 0.2 0.2 0.3 0.5 0.2 0.2 0.4 0.4 0.2 0.2 0.4 0.4 0.2 0.2 0.3 0.5-0.2-0.2-0.5-0.3-0.2-0.1-0.5-0.1-0.3-0.1-0.5 0-0.3 0-0.6 0.1c-0.5 0.3-0.5 0.6-0.5 0.7 0 0 0.2-0.3 0.6-0.5q0.3-0.1 0.5-0.1 0.3 0 0.6 0.1 0.2 0 0.4 0.2 0.3 0.1 0.5 0.3 0.2 0.3 0.5 0.6 0.2 0.3 0.4 0.7 0.3 0.3 0.5 0.7 0.2 0.3 0.3 0.7 0.9 1.6 2 3.5c1.5 2.5 2.8 4.8 3.9 6.4z"/>
		<path id="Layer" class="s0" d="m81.7 102.9c0.7 2.4 1.3 4.8 1.8 7q-0.7 0.4-1.3 0.8-0.6 0.3-1.2 0.7-0.6 0.4-1.2 0.9-0.6 0.4-1.1 0.9c-0.4-6.4-0.7-14.4-0.5-20.1l0.3 0.7c0.1 0.4 0.3 1 0.5 1.8 0.5 1.7 1.1 3.6 1.7 5.7l1.7 5.7q0 0.3 0.1 0.6 0.1 0.3 0.2 0.6 0.1 0.3 0.2 0.6 0.1 0.2 0.3 0.5-0.1-0.3-0.1-0.6 0-0.3-0.1-0.6 0-0.3-0.1-0.6-0.1-0.3-0.2-0.6c-0.2-1.1-0.6-2.4-1-4z"/>
		<path id="Layer" class="s0" d="m70.4 106.9c-0.2 2-0.4 3.8-0.5 5.5q-0.3-0.2-0.6-0.4-0.3-0.2-0.6-0.3-0.4-0.1-0.7-0.2-0.4-0.1-0.7-0.1c-2.2 0.2-3.5 2.7-5.6 3.1 1.8-5.5 3.5-13.2 5.3-18.4q0-0.3 0.2-0.6 0.1-0.3 0.2-0.6 0.2-0.3 0.4-0.5 0.1-0.3 0.4-0.5 0-0.1 0-0.1 0 0 0 0 0 0 0 0 0 0 0.1 0 0.5 0 1 0h0.6q0.1 0.1 0.3 0.2 0.2 0.1 0.3 0.3 0.1 0.2 0.3 0.3 0.1 0.2 0.2 0.4 0.1 0.4 0.1 0.7 0.1 0.4 0.1 0.8 0 0.4 0 0.8 0 0.3-0.1 0.7l-0.6 3.9c-0.3 2.7-0.6 5.2-0.8 7q-0.1 0.3-0.1 0.7-0.1 0.4-0.1 0.7 0 0.4 0 0.8 0 0.3 0 0.7 0.1-0.4 0.2-0.7 0.1-0.4 0.1-0.7 0.1-0.4 0.2-0.8 0-0.3 0.1-0.7c0-0.6 0.2-1.3 0.3-2z"/>
		<path id="Layer" class="s0" d="m54.2 107.3c-0.5 1-1 1.7-1.2 2.1-2.6-0.2-5.6 1.2-7.8 0.3 3.9-5.3 9.4-12.3 13.3-16.6q0.1-0.1 0.2-0.2 0.1-0.1 0.2-0.2 0.2-0.1 0.3-0.1 0.2-0.1 0.3-0.1 0.1 0.2 0.2 0.5 0.1 0.2 0.1 0.4 0.1 0.3 0.1 0.6 0 0.2 0 0.5 0 0.4 0 0.7-0.1 0.4-0.2 0.8-0.1 0.4-0.2 0.7-0.1 0.4-0.3 0.8c-0.4 1.1-1 2.3-1.6 3.5-1.2 2.5-2.5 4.7-3.4 6.3z"/>
		<path id="Layer" class="s0" d="m42.2 101.5q-0.1-0.1-0.1-0.2-0.1-0.1-0.2-0.2 0-0.1-0.1-0.2 0-0.1-0.1-0.1c-1.3-1.6-3.6-1.7-5.7-2l11.9-8.9q0.3-0.3 0.7-0.6 0.4-0.3 0.9-0.5 0.4-0.3 0.8-0.5 0.5-0.2 0.9-0.4c-0.5 0.4-1.3 0.9-2.2 1.6q-0.3 0.2-0.7 0.5-0.4 0.3-0.7 0.6-0.4 0.3-0.7 0.7-0.3 0.3-0.7 0.7 0.5-0.2 0.9-0.5 0.4-0.2 0.8-0.5 0.4-0.2 0.7-0.5 0.4-0.3 0.8-0.6 0.3-0.3 0.6-0.5 0.3-0.3 0.6-0.5 0.4-0.3 0.7-0.6 0.3-0.2 0.6-0.5 0.9 0.7 1.9 1.3c-0.7 0.6-2.6 2.7-4.8 5.1-2.1 2.2-3.9 4.1-4.6 4.9-0.8 0.9-1.6 1.7-2.2 2.4z"/>
		<path id="Layer" class="s0" d="m37.5 88.7c-2 1.1-3.9 2.3-5.7 3.4q0-0.1 0-0.2-0.1-0.1-0.1-0.3 0-0.1-0.1-0.2 0-0.1-0.1-0.2c-1.3-2.2-4.9-1.6-6.9-3.1 6.3-2.3 14.5-5.4 19.9-6.8q0.1 0 0.3-0.1 0.1 0 0.3 0 0.1 0 0.3 0 0.1 0 0.3 0 0.4 0.6 0.9 1.3-0.1 0.1-0.1 0.2-0.1 0.1-0.2 0.2-0.1 0.2-0.2 0.2-0.1 0.1-0.3 0.2 0 0 0 0 0.1 0 0.1-0.1 0 0 0 0 0 0 0 0 0-0.2 0-0.3 0-0.1 0-0.2 0-0.1 0-0.2-0.1-0.1-0.1-0.2c-0.2-0.4-0.6-0.5-0.6-0.4 0 0 0.3 0.1 0.4 0.5q0 0.1 0.1 0.1 0 0.1 0 0.2 0 0.1 0 0.2-0.1 0.1-0.1 0.2 0 0.1-0.1 0.2-0.1 0.1-0.1 0.2-0.1 0.1-0.2 0.2-0.1 0-0.2 0.1c-1.2 0.9-3.1 2-5.1 3.3-0.9 0.5-1.7 1.1-2.4 1.6z"/>
		<path id="Layer" class="s0" d="m29.8 78.4l-5 1.1q0.1-0.4 0.2-0.8 0-0.5 0-0.9 0-0.4-0.1-0.8-0.1-0.4-0.3-0.8c-0.8-1.6-2.9-2.3-3.8-3.9q9.9 0.3 19.8 0.6 0.2 0 0.4 0 0.1 0.1 0.3 0.1 0.2 0 0.3 0.1 0.2 0 0.3 0.1c0.2 0.5 0.4 1 0.5 1.5q-0.1 0.1-0.2 0.2-0.1 0.1-0.2 0.2-0.1 0.1-0.3 0.1-0.1 0.1-0.3 0.1l-0.4 0.2q0.1-0.1 0.2-0.2 0.1-0.1 0.2-0.1 0.2-0.1 0.2-0.2 0.1-0.1 0.2-0.2c0.3-0.4 0.5-0.8 0.4-0.6q-0.2 0.2-0.5 0.4-0.2 0.2-0.5 0.4-0.3 0.2-0.6 0.3-0.3 0.2-0.6 0.3c-0.7 0.3-1.7 0.5-2.7 0.7l-3.5 1c-1.4 0.3-2.8 0.7-4 1.1z"/>
		<path id="Layer" fill-rule="evenodd" class="s0" d="m23.2 65.6q0.1 0 0.2 0 0.1 0.1 0.2 0.1l-1.3-0.1q0.2-0.3 0.4-0.7 0.3-0.4 0.5-0.7 0.2-0.4 0.3-0.8 0.2-0.4 0.3-0.8c0.5-1.7 0.1-3.9-1.5-4.6l0.1 0.9q-0.4-0.1-0.7-0.3-0.3-0.3-0.5-0.7-0.2-0.3-0.3-0.7-0.1-0.4 0-0.8c6.5 1.8 14.4 4.1 19.8 7.4l0.2 0.1c0 0.4 0 1 0 1.4q0 0.5 0 1h-0.2c-2 0.1-4.3 0.1-6.8 0 1.4 0 2.8-0.1 3.8-0.1q0.3 0 0.6 0 0.3-0.1 0.6-0.1 0.4 0 0.7-0.1 0.3 0 0.6-0.1-0.3 0-0.6-0.1-0.4 0-0.7 0-0.3 0-0.6 0-0.3 0-0.6 0c-1.6 0-3.7 0-6.1-0.1-2.4 0-4.5-0.1-6.1-0.2q-0.3 0-0.6 0-0.3 0-0.6 0-0.4 0-0.7 0-0.3 0-0.6 0 0.1 0.1 0.2 0.1zm0.6 0.1q-0.1 0-0.2 0 0 0 0 0zm12.4-1.8q-0.5 0-0.9-0.1-0.4 0-0.8 0-0.5 0-0.9 0 0.4 0.2 0.8 0.3 0.4 0.1 0.8 0.2 0.4 0.1 0.9 0.2 0.4 0.1 0.8 0.1 0.4 0.1 0.8 0.2 0.5 0.1 0.9 0.1 0.4 0.1 0.8 0.1 0.5 0 0.9 0-0.4-0.2-0.8-0.3-0.4-0.2-0.8-0.3-0.4-0.1-0.9-0.2-0.4 0-0.8-0.1-0.4-0.1-0.8-0.2z"/>
		<path id="Layer" class="s0" d="m25.6 50.9l-1.2-0.5q0.1-0.1 0.2-0.3 0.1-0.1 0.1-0.3 0.1-0.1 0.2-0.3 0-0.1 0.1-0.3c0.6-1.9-0.1-4.3 0.2-6.2q2 1.1 4 2.3 2 1.2 4 2.5 2 1.3 3.9 2.6 2 1.3 3.9 2.6l-1.7-1q-0.6-0.3-1.2-0.7-0.6-0.3-1.2-0.7-0.6-0.3-1.3-0.6-0.6-0.3-1.3-0.5 0.6 0.4 1.2 0.8 0.5 0.4 1.1 0.8 0.6 0.4 1.2 0.7 0.6 0.4 1.3 0.7c1.5 0.9 2.9 1.6 3.8 2.1q-0.3 0.8-0.6 1.7 0 0 0 0.1-0.1 0-0.1 0 0 0 0 0 0 0 0 0.1-0.2 0-0.3 0.1-0.1 0-0.3 0-0.1 0-0.3 0-0.1 0-0.2 0-0.7-0.1-1.4-0.2-0.7-0.2-1.3-0.4-0.7-0.1-1.3-0.3-0.7-0.2-1.4-0.5c-1.8-0.7-3.7-1.5-5.6-2.3l-2-1q-0.4-0.2-0.7-0.3-0.3-0.2-0.7-0.3-0.3-0.2-0.6-0.3-0.4-0.1-0.7-0.3c0 0.1 0.1 0.1 0.2 0.2z"/>
		<path id="Layer" class="s0" d="m35.4 39.6q0.1 0.2 0.3 0.5 0.2 0.2 0.4 0.4 0.2 0.2 0.4 0.4c-1.2-1-2.4-2.1-3.4-3 0.5-1.6 0.1-3.7 1.2-5q0.2-0.3 0.5-0.5 0.2-0.2 0.5-0.3 0.3-0.2 0.6-0.3 0.3-0.1 0.6-0.1 1.1 1.3 2.1 2.6 1.1 1.4 2.1 2.7 1 1.4 1.9 2.8 1 1.4 1.9 2.8-0.2-0.2-0.3-0.5-0.2-0.2-0.4-0.5-0.2-0.2-0.4-0.4-0.2-0.2-0.4-0.5 0.2 0.6 0.5 1.1 0.2 0.5 0.5 1 0.3 0.5 0.7 1 0.3 0.4 0.7 0.9c0.7 1 1.3 1.8 1.8 2.4l0.1 0.1q-0.6 0.7-1.1 1.4l-0.4-0.3c-1.2-0.9-2.8-2.1-4.6-3.6-1.7-1.5-3.3-3-4.3-4q-0.2-0.2-0.5-0.4-0.2-0.2-0.4-0.4-0.2-0.2-0.5-0.4-0.2-0.2-0.4-0.4 0.1 0.2 0.3 0.5z"/>
		<path id="Layer" fill-rule="evenodd" class="s0" d="m44.8 31c-0.7-0.9-1.4-1.8-2-2.6 0.9-1.7 1.5-3.9 3.1-4.9q0.2-0.1 0.3-0.2 0.1 0 0.3-0.1 0.1-0.1 0.2-0.1 0.2-0.1 0.3-0.2c2.3 5.5 5.7 13 7.6 17.9 0 0 0 0.1 0 0.1q-0.7 0.5-1.4 0.9c0.1-0.1-2-2.6-4.5-5.8-1.7-2.1-3.2-4-3.9-5zm6.9 5.3q0.3 0.9 0.7 1.7 0.4 0.8 0.9 1.6 0.5 0.8 1 1.5-0.1-0.4-0.3-0.9-0.1-0.4-0.3-0.8-0.2-0.4-0.4-0.8-0.2-0.4-0.4-0.8-0.2-0.4-0.4-0.9-0.1-0.4-0.3-0.8-0.2-0.4-0.5-0.8-0.2-0.4-0.4-0.7 0.2 0.8 0.4 1.7z"/>
		<path id="Layer" class="s0" d="m57.4 24.9v-0.4q0.3 0 0.6-0.1 0.3-0.1 0.5-0.3 0.3-0.1 0.5-0.3 0.2-0.2 0.4-0.5c1.4-1.9 2-3.3 2.8-4.1 0 5.2-0.1 11.9-0.1 17.1q0-0.8-0.1-1.8-0.1-0.5-0.1-0.9-0.1-0.4-0.2-0.8-0.1-0.5-0.3-0.9-0.1-0.4-0.3-0.8 0 0.5 0 0.9 0 0.4 0.1 0.8 0 0.5 0.1 0.9 0 0.4 0.1 0.8 0.1 0.4 0.1 0.9 0.1 0.4 0.1 0.8 0.1 0.4 0.2 0.8 0 0.4 0.1 0.8-0.8 0.3-1.6 0.5-0.2-0.5-0.4-1.2c-0.3-1.3-0.6-2.9-1-4.7-0.4-2.1-0.8-4-1-5.4q0-0.3-0.1-0.6 0-0.3-0.1-0.5-0.1-0.3-0.1-0.6-0.1-0.3-0.2-0.5 0 0 0 0.1z"/>
		<path id="Layer" class="s0" d="m70 23.2v-0.4q0.1 0.1 0.2 0.2 0.1 0.1 0.2 0.1 0.1 0.1 0.2 0.1 0.1 0.1 0.3 0.1c0.9 0 2.8-3.8 4.3-4.6q0.3-0.1 0.5-0.2 0.2-0.1 0.4-0.2 0.2 0 0.5-0.1 0.2 0 0.4 0c-1 4.1-2.2 9.7-3.1 13.3q-0.1 0.7-0.3 1.4-0.2 0.7-0.5 1.4-0.3 0.7-0.6 1.4-0.3 0.6-0.7 1.3c-0.7-0.1-1.4-0.1-2-0.1 0.1-1.3 0.1-3.8 0.2-6.7 0-3.1 0-5.8 0-7z"/>
		<path id="Layer" class="s2" d="m99.1 57q-0.3 0.1-0.6 0.1-0.2 0.1-0.5 0.2-0.2 0-0.5 0 0.2-0.1 0.5-0.2 0.2-0.1 0.4-0.2 0.3-0.2 0.5-0.3 0.3-0.1 0.5-0.1c1.3-0.5 3-1.2 4.9-1.9 2-0.7 3.7-1.3 5-1.7q0.2-0.1 0.5-0.2 0.2-0.1 0.5-0.2 0.2-0.1 0.5-0.1 0.3-0.1 0.6-0.1c0 0-0.3 0.2-0.8 0.4l-1.2 0.5c-1.3 0.5-3 1.2-4.9 1.9-1.9 0.7-3.7 1.3-4.9 1.7q-0.3 0.1-0.5 0.2z"/>
		<path id="Layer" class="s2" d="m107.9 66.7c2.4 0.2 4.7 0.4 6.3 0.6 0 0 0 0 0 0.1q0 0.1 0 0.3l-2.2-0.2-4.1-0.3-6.7-0.5q-0.3 0-0.7 0-0.3-0.1-0.7-0.1-0.3-0.1-0.7-0.1-0.3-0.1-0.6-0.1 0.2-0.1 0.5-0.1 0.3 0 0.5 0 0.3 0 0.6 0 0.3 0 0.6 0h0.5c1.8 0 4.1 0.2 6.7 0.4z"/>
		<path id="Layer" class="s2" d="m110.8 81.9l0.9 0.5q0 0.2 0 0.4c-1.5-0.8-3.9-2-6.5-3.4-2.1-1.1-4.1-2.2-5.5-3q-0.4-0.2-0.7-0.4-0.4-0.1-0.7-0.4-0.3-0.2-0.7-0.4-0.3-0.2-0.6-0.4 1.1 0.4 2.1 0.9 1.1 0.5 2.2 1.1 1 0.5 2.1 1.1 1 0.5 2 1.1c2.1 1.1 3.9 2.1 5.4 2.9z"/>
		<path id="Layer" fill-rule="evenodd" class="s2" d="m107 93l0.5 0.4-0.2 0.2-0.6-0.3-1.2-0.8c-1.4-1-3.2-2.3-5.1-3.6-2.5-1.8-4.7-3.4-6.3-4.6-1.1-0.8-1.9-1.5-2.3-1.8q-0.5 0.8-1.1 1.4-0.6 0.7-1.2 1.3-0.6 0.6-1.2 1.2-0.7 0.6-1.3 1.1-0.7 0.5-1.4 1-0.8 0.6-1.6 1.1-1.5 0.9-3.1 1.6-1.5 0.7-3.2 1.2-1.6 0.6-3.4 0.9-1.7 0.3-3.4 0.4h-0.6q0.2 0.1 0.3 0.2 0.2 0.1 0.3 0.3 0.1 0.1 0.2 0.3 0.1 0.1 0.2 0.3c0.1 0.1 0.1 0.1 0.1 0.2q0.1 0.3 0.2 0.7 0.1 0.4 0.1 0.8 0 0.4 0 0.8 0 0.4-0.1 0.7-0.2 1.9-0.5 3.9c-0.2 1.9-0.5 3.6-0.7 5-0.1 0.7-0.2 1.4-0.3 2q0 0.4-0.1 0.7 0 0.4-0.1 0.8-0.1 0.3-0.2 0.7-0.1 0.3-0.2 0.7 0-0.4 0-0.7 0-0.4 0.1-0.8 0-0.3 0-0.7 0.1-0.4 0.1-0.7c0.2-1.8 0.5-4.3 0.9-7l0.5-3.9q0.1-0.4 0.1-0.8 0.1-0.3 0.1-0.7-0.1-0.4-0.1-0.8-0.1-0.3-0.2-0.7-0.1-0.2-0.2-0.4-0.1-0.2-0.2-0.4-0.1-0.2-0.3-0.4-0.1-0.1-0.3-0.3c-0.4 0-1.3 0-1.6 0q-1.1 0-2.3-0.1-1.1-0.1-2.2-0.4-1.1-0.2-2.2-0.5-1.1-0.3-2.2-0.7 0.1 0.1 0.3 0.3 0 0.1 0 0.1 0 0 0 0 0 0.1 0 0.1 0 0 0.1 0 0.1 0.2 0.2 0.5 0.1 0.2 0.1 0.5 0.1 0.2 0.1 0.4 0.1 0.3 0.1 0.6 0 0 0 0.1 0 0.1 0 0.2 0 0 0 0.1 0 0.1 0 0.2 0 0.3-0.1 0.6 0 0.4-0.1 0.7-0.1 0.3-0.2 0.6-0.1 0.4-0.2 0.7c-0.4 1.1-1 2.3-1.6 3.6q-0.4 0.8-0.9 1.6-0.4 0.7-0.8 1.5-0.5 0.8-0.9 1.6-0.5 0.7-1 1.5c-0.6 0.9-1 1.6-1.3 2h-0.2q0.4-0.7 1.2-2.2c0.9-1.6 2.2-3.8 3.4-6.2 0.6-1.3 1.2-2.5 1.7-3.6q0.1-0.3 0.2-0.7 0.2-0.4 0.2-0.7 0.1-0.4 0.2-0.8 0-0.4 0-0.8 0-0.2 0-0.5 0-0.2-0.1-0.5 0-0.3-0.1-0.5-0.1-0.2-0.2-0.5 0-0.1-0.1-0.1 0-0.1 0-0.2-0.1 0-0.1-0.1-0.1-0.1-0.1-0.1-0.7-0.3-1.4-0.6-0.6-0.3-1.3-0.6-0.6-0.4-1.3-0.7-0.6-0.4-1.2-0.8h-0.1c-0.2 0.3-0.6 0.8-1.1 1.5q-0.1 0.1-0.2 0.2c-0.8 1-1.9 2.2-3.2 3.7-1.4 1.4-2.7 2.7-3.7 3.6q-0.1 0.2-0.3 0.4-0.2 0.2-0.4 0.4-0.2 0.1-0.5 0.3-0.2 0.2-0.4 0.3 0 0 0.3-0.5c0.7-0.8 2.5-2.7 4.6-4.9 2.2-2.4 4.1-4.5 4.8-5.1q-1-0.6-1.9-1.3-0.3 0.3-0.6 0.5-0.3 0.3-0.6 0.6-0.4 0.2-0.7 0.5-0.3 0.2-0.6 0.5-0.4 0.3-0.7 0.6-0.4 0.3-0.8 0.5-0.4 0.3-0.8 0.5-0.4 0.3-0.8 0.5 0.3-0.4 0.6-0.7 0.3-0.4 0.7-0.7 0.3-0.3 0.7-0.6 0.4-0.3 0.8-0.5c0.8-0.7 1.6-1.2 2.1-1.6l0.5-0.3q-0.7-0.5-1.4-1.1-0.7-0.6-1.3-1.3-0.6-0.6-1.2-1.3-0.6-0.7-1.1-1.4-0.5-0.7-1-1.3-0.5-0.8-0.9-1.6-0.5-0.7-0.9-1.5-0.4-0.8-0.8-1.7-0.3-0.8-0.6-1.6-0.3-0.8-0.5-1.6-0.2-0.9-0.4-1.7-0.2-0.9-0.4-1.7-0.1-0.9-0.2-1.8-0.1-0.8-0.1-1.7c0-0.3 0-0.5 0-1q0-0.7 0-1.4 0-0.8 0.1-1.6 0.1-0.9 0.3-1.7 0.1-0.8 0.3-1.6 0.2-0.8 0.4-1.6 0.1-0.3 0.2-0.7-0.1 0.1-0.3 0.1-0.1 0.1-0.2 0.1-0.2 0-0.3 0.1-0.2 0-0.3 0l-0.8-0.1q-0.8-0.2-1.6-0.3-0.7-0.2-1.5-0.4-0.7-0.2-1.5-0.5-0.7-0.2-1.4-0.5-0.9-0.3-1.7-0.7-0.8-0.3-1.6-0.7-0.8-0.4-1.5-0.8-0.8-0.4-1.6-0.8c-1.1-0.6-1.9-1-2.2-1.3-0.2-0.1-0.5-0.3-0.3-0.2q0.4 0.1 0.7 0.3 0.3 0.1 0.7 0.2 0.3 0.2 0.6 0.3 0.4 0.2 0.7 0.4l2 1c1.3 0.6 2.8 1.2 4.3 1.8q0.7 0.3 1.4 0.5 0.6 0.2 1.3 0.4 0.6 0.2 1.3 0.4 0.7 0.2 1.3 0.3 0.7 0.2 1.4 0.3 0.1 0 0.3 0 0.1 0 0.2 0 0.2 0 0.3-0.1 0.1 0 0.3-0.1 0 0 0 0 0 0 0 0 0.1-0.1 0.1-0.1 0 0 0 0 0.3-0.9 0.7-1.7c-0.9-0.5-2.4-1.3-3.9-2.2q-0.6-0.3-1.3-0.6-0.6-0.4-1.2-0.7-0.5-0.4-1.1-0.8-0.6-0.4-1.1-0.9 0.6 0.3 1.3 0.6 0.6 0.3 1.2 0.6 0.6 0.3 1.3 0.7 0.6 0.3 1.2 0.7l1.6 1c0.8 0.5 1.6 1 2.1 1.3q0.3-0.7 0.6-1.4 0.4-0.7 0.8-1.3 0.3-0.7 0.7-1.4 0.5-0.6 0.9-1.2l-0.4-0.3q-1.3-0.8-2.4-1.7-1.2-0.9-2.4-1.9-1.1-0.9-2.2-1.9-1-1-2-2.1l-0.1-0.1q-0.2-0.2-0.4-0.4-0.2-0.2-0.4-0.5-0.2-0.2-0.4-0.4-0.1-0.3-0.3-0.5 0.3 0.2 0.5 0.3 0.2 0.2 0.5 0.4 0.2 0.2 0.4 0.5 0.2 0.2 0.4 0.4c1.1 1.1 2.6 2.5 4.4 4 1.7 1.4 3.4 2.7 4.6 3.6l0.4 0.3q0.5-0.7 1.1-1.4l-0.1-0.1c-0.5-0.6-1.2-1.4-1.9-2.4q-0.4-0.5-0.7-0.9-0.3-0.5-0.6-1-0.3-0.5-0.6-1-0.2-0.5-0.5-1.1 0.2 0.2 0.5 0.5 0.2 0.2 0.3 0.4 0.2 0.3 0.4 0.5 0.2 0.2 0.3 0.5l1.3 1.8c0.7 1 1.4 1.8 1.8 2.5q0.6-0.7 1.2-1.3 0.7-0.7 1.3-1.3 0.7-0.6 1.4-1.2 0.7-0.5 1.4-1l0.3-0.3q0 0 0 0 0.7-0.4 1.5-0.9 0.6-0.3 1.2-0.7 0.6-0.3 1.3-0.6 0.6-0.3 1.3-0.6 0.7-0.3 1.3-0.5-0.1-0.3-0.2-0.7c-0.4-1.3-0.8-3.2-1.2-5.3-0.4-2.1-0.7-4-0.9-5.4q0-0.3 0-0.6 0-0.2-0.1-0.5 0-0.3 0-0.6 0-0.2 0-0.5c0-0.1-0.1-0.3 0-0.1q0.1 0.3 0.2 0.5 0 0.3 0.1 0.6 0.1 0.3 0.1 0.6 0 0.2 0.1 0.5c0.2 1.4 0.6 3.3 1 5.4 0.3 1.8 0.7 3.5 1 4.8 0 0.2 0 0.3 0.1 0.5 0.1 0.3 0.1 0.5 0.1 0.7l0.2-0.1q0.8-0.2 1.6-0.4-0.1-0.4-0.1-0.9-0.1-0.4-0.2-0.8 0-0.4-0.1-0.8 0-0.4-0.1-0.8-0.1-0.5-0.1-0.9-0.1-0.4-0.1-0.8-0.1-0.5-0.1-0.9 0-0.4 0-0.8 0.2 0.4 0.3 0.8 0.2 0.4 0.3 0.8 0.1 0.4 0.1 0.8 0.1 0.5 0.1 0.9 0.2 1 0.2 1.8 0 0.4 0 0.7 0 0.1 0 0.2 0 0.1 0 0.2 0 0.1-0.1 0.2 0 0.1 0 0.2h0.1q0.9-0.2 1.7-0.3 0.9-0.2 1.8-0.3 0.8-0.1 1.7-0.2 0.9-0.1 1.8-0.1h0.4c0-1.1 0-3.2 0-5.6q0-0.5 0-1.1c0.1-3.8 0.2-6.9 0.3-7.5l0.1 0.1q0 0.1 0 0.1 0 0.1 0 0.1 0 0.1 0 0.2 0 0 0 0.1c0 1.2 0.1 3.8 0 6.9 0 2.9-0.1 5.4-0.2 6.7q1 0.1 2 0.1 0.8 0.1 1.6 0.2 0.7 0.1 1.5 0.3 0.8 0.1 1.6 0.3 0.7 0.2 1.5 0.5c0.5 0.1 1 0.3 1.5 0.5q0.8 0.4 1.7 0.7 0.8 0.4 1.6 0.8 0.8 0.4 1.5 0.9 0.8 0.5 1.5 1l0.1 0.1q0-0.1 0-0.1 0 0 0 0 0-0.1 0-0.1 0 0 0-0.1 0.1-0.1 0.2-0.2 0-0.2 0.1-0.3 0.1-0.1 0.2-0.2 0.1-0.2 0.2-0.3 0.6-0.8 1.5-1.8 1.2-1.4 2.7-3c1.7-1.8 3.3-3.4 4.4-4.6q0.2-0.2 0.4-0.5 0.3-0.2 0.5-0.5 0.3-0.2 0.5-0.4 0.3-0.2 0.5-0.4-0.2 0.3-0.3 0.5-0.2 0.3-0.4 0.6-0.3 0.2-0.5 0.5-0.2 0.2-0.4 0.5c-1.1 1.2-2.6 2.9-4.3 4.7-1.7 1.8-3.2 3.5-4.4 4.6q-0.1 0.1-0.2 0.3-0.1 0.1-0.2 0.3-0.1 0.1-0.2 0.3 0 0.1-0.1 0.3l0.6 0.4q0.9 0.7 1.7 1.5 0.9 0.8 1.7 1.6 0.7 0.8 1.4 1.7 0.7 0.9 1.4 1.8 0.2 0.4 0.5 0.8 0-0.1 0-0.3 0-0.1 0-0.2 0-0.1 0.1-0.2 0-0.1 0-0.3 0.1 0 0.1-0.1 0.1-0.1 0.1-0.2 0-0.1 0.1-0.2 0-0.1 0.1-0.1 0.1-0.2 0.3-0.4 0.1-0.2 0.3-0.3 0.2-0.2 0.3-0.4 0.2-0.1 0.4-0.2 1.2-0.9 2.6-1.7c1.9-1.2 3.6-2.1 4.9-2.7 0.9-0.5 1.6-0.8 1.9-0.9 0.2 0 0.4-0.2 0.3 0q-0.3 0.1-0.5 0.3-0.2 0.2-0.5 0.3-0.2 0.2-0.5 0.3-0.3 0.2-0.5 0.3c-1.3 0.7-3 1.7-4.8 2.8-1.9 1.2-3.7 2.1-4.2 3.4q-0.1 0.1-0.2 0.3 0 0.1 0 0.3-0.1 0.1-0.1 0.3 0 0.2 0 0.3l0.4 0.7q0.4 0.8 0.8 1.5 0.4 0.8 0.7 1.6 0.4 0.8 0.7 1.6 0.2 0.9 0.5 1.7 0.2 0.9 0.4 1.9 0.2 0.9 0.3 1.9 0.2 0.9 0.2 1.9 0.1 0.9 0.1 1.9 0 0.4 0 0.8-0.1 1.3-0.2 2.5-0.1 0.8-0.2 1.5-0.1 0.8-0.3 1.5-0.2 0.8-0.4 1.5-0.2 0.8-0.5 1.5-0.1 0.3-0.2 0.7-0.1 0.4-0.3 0.7-0.1 0.4-0.3 0.7-0.1 0.4-0.3 0.7-0.3 0.6-0.6 1.3-0.4 0.6-0.7 1.2-0.4 0.6-0.8 1.2-0.4 0.6-0.8 1.2l-0.2 0.1c0.4 0.3 1.2 0.8 2.2 1.4l0.3 0.2c1.6 1.1 3.9 2.7 6.3 4.4 2.5 1.8 4.7 3.4 6.3 4.6zm-53.7-51.2q-0.2-0.2-0.3-0.3-0.2-0.2-0.4-0.4-0.2-0.2-0.4-0.4-0.2-0.2-0.4-0.4l-1-1.1c-0.7-0.8-1.5-1.8-2.4-2.9-1.3-1.6-2.4-3.1-3.1-4.2q-0.2-0.2-0.4-0.5-0.1-0.2-0.3-0.4-0.1-0.3-0.2-0.5-0.2-0.2-0.3-0.5c0.1 0 0.3 0.3 0.8 0.8 0.8 1 2.2 2.9 3.9 5 2.3 2.9 4.2 5.3 4.5 5.8zm0.1 0h-0.1q0 0 0 0 0 0 0.1 0zm25.4 46.5c3-1.2 5.8-3.1 8.1-5.4 2.3-2.3 4.1-5 5.4-8.1 1.2-3 1.9-6.2 1.9-9.5 0-10.1-6.1-19.2-15.4-23-9.3-3.9-20-1.8-27.2 5.4-7.1 7.1-9.2 17.8-5.4 27.1 3.9 9.3 13 15.4 23.1 15.4 3.2 0 6.5-0.6 9.5-1.9z"/>
		<path id="Layer" class="s2" d="m96.4 95.1q-0.4-0.4-0.7-0.8-0.4-0.4-0.7-0.8-0.4-0.5-0.6-1-0.4-0.4-0.7-0.9-0.3-0.4-0.5-0.9-0.3-0.5-0.5-1-0.2-0.5-0.4-1 0.3 0.4 0.7 0.8 0.3 0.5 0.6 0.9 0.3 0.5 0.6 0.9 0.3 0.5 0.6 0.9 0.3 0.5 0.6 0.9 0.4 0.4 0.7 0.9 0.3 0.4 0.6 0.9 0.3 0.5 0.6 0.9-0.5-0.3-0.9-0.7z"/>
		<path id="Layer" class="s2" d="m94.9 103l0.2 0.5c-0.1 0.1-0.1 0.2-0.1 0.4l-0.4-0.7c-1-1.6-2.4-3.8-3.8-6.3q-1.1-1.9-2-3.6-0.2-0.3-0.4-0.7-0.2-0.3-0.4-0.7-0.2-0.3-0.5-0.6-0.2-0.4-0.5-0.7-0.2-0.2-0.4-0.3-0.2-0.1-0.5-0.2-0.2 0-0.5 0-0.3 0-0.5 0.1c-0.5 0.2-0.6 0.4-0.7 0.4 0 0 0.1-0.3 0.6-0.6q0.3-0.1 0.5-0.1 0.3-0.1 0.6 0 0.2 0 0.5 0.1 0.2 0.1 0.5 0.3 0 0 0 0 0 0 0 0 0.1 0 0.1 0 0 0.1 0 0.1 0.3 0.3 0.6 0.6 0.3 0.3 0.5 0.7 0.3 0.3 0.5 0.7 0.2 0.4 0.4 0.7l2.1 3.6v0.1c1.5 2.4 2.7 4.7 3.6 6.2z"/>
		<path id="Layer" class="s2" d="m79 95.6c-0.2-0.8-0.4-1.5-0.5-1.8-0.1-0.4-0.2-0.7-0.1-0.6q0.2 0.3 0.3 0.6 0.1 0.3 0.3 0.5 0.1 0.3 0.2 0.6 0.1 0.3 0.2 0.6c0.5 1.4 1.1 3.4 1.8 5.7q0.3 0.9 0.5 1.8c0.4 1.5 0.8 2.8 1 3.9q0.1 0.3 0.2 0.6 0.1 0.3 0.1 0.6 0.1 0.3 0.1 0.6 0 0.3 0 0.6-0.1-0.3-0.2-0.5-0.1-0.3-0.2-0.6-0.1-0.3-0.2-0.6-0.1-0.3-0.1-0.6l-1.7-5.7c-0.6-2.1-1.2-4-1.7-5.7z"/>
		<path id="Layer" class="s2" d="m74.7 100.3q0.1 0.7 0.1 1.4 0.1 0.7 0 1.5-0.1 0.7-0.3 1.4 0-0.4-0.1-0.7-0.1-0.4-0.1-0.7 0-0.4 0-0.7 0-0.4 0-0.7 0-0.4 0-0.8-0.1-0.3-0.1-0.7 0-0.3 0.1-0.7 0-0.3 0.1-0.7 0.2 0.7 0.3 1.4z"/>
		<path id="Layer" class="s2" d="m45.9 82.5q0 0.1 0 0.2 0 0.1 0 0.2 0 0.1 0 0.3 0 0 0 0 0 0 0 0 0 0.1 0 0.1 0 0 0 0-0.1 0.1-0.2 0.2 0 0.1-0.1 0.2-0.1 0.1-0.1 0.2-0.1 0.1-0.2 0.2c-1.3 1-3.1 2.2-5.1 3.4-2 1.3-3.8 2.5-5.2 3.3q-0.2 0.2-0.5 0.3-0.3 0.2-0.5 0.3-0.3 0.2-0.6 0.3-0.3 0.2-0.6 0.3 0.2-0.2 0.5-0.4 0.2-0.2 0.5-0.4 0.2-0.2 0.5-0.4 0.2-0.2 0.5-0.3c0.8-0.5 1.7-1.2 2.7-1.8q1.1-0.8 2.4-1.6c2-1.3 3.9-2.4 5.1-3.3q0.1-0.1 0.2-0.1 0.1-0.1 0.2-0.2 0-0.1 0.1-0.2 0.1-0.1 0.1-0.2 0-0.1 0.1-0.2 0-0.1 0-0.2 0-0.1 0-0.2-0.1 0-0.1-0.1c-0.1-0.4-0.4-0.5-0.4-0.5 0-0.1 0.4-0.1 0.6 0.4q0.1 0.1 0.1 0.2z"/>
		<path id="Layer" class="s2" d="m41.7 75q-0.1 0.1-0.2 0.2-0.1 0-0.2 0.1-0.1 0.1-0.3 0.2-0.1 0-0.2 0.1-0.1 0.1-0.2 0.1-0.1 0.1-0.2 0.1-0.1 0.1-0.2 0.1-0.3 0.2-0.7 0.3-0.3 0.1-0.7 0.2-0.3 0.1-0.7 0.2-0.3 0.1-0.7 0.2l-3.4 1c-2.4 0.6-4.6 1.2-6.2 1.6q-0.4 0.1-0.7 0.1-0.3 0.1-0.6 0.2-0.4 0.1-0.7 0.1-0.3 0.1-0.7 0.1 0.3-0.1 0.7-0.3 0.3-0.1 0.6-0.2 0.3-0.1 0.6-0.2 0.3-0.1 0.7-0.2l2.1-0.6c1.2-0.4 2.6-0.8 4-1.1l3.5-1c1-0.2 2-0.4 2.7-0.7q0.3-0.1 0.6-0.3 0.3-0.1 0.6-0.3 0.3-0.2 0.5-0.4 0.3-0.2 0.5-0.4c0 0-0.1 0.2-0.4 0.6q-0.1 0.1-0.1 0.2z"/>
		<path id="Layer" class="s2" d="m39.5 66q-0.3 0.1-0.6 0.1-0.3 0-0.6 0.1-0.3 0-0.7 0c-1 0.1-2.3 0.1-3.7 0.1q-1.1 0-2.3 0c-2.4-0.1-4.6-0.2-6.1-0.4q-1.1-0.1-1.7-0.2-0.1 0-0.2 0-0.1 0-0.2 0-0.1 0-0.2-0.1-0.1 0-0.2 0 0.3-0.1 0.6-0.1 0.3 0 0.6 0 0.3 0 0.7 0 0.3 0 0.6 0.1c1.6 0 3.7 0.1 6.1 0.1 2.3 0.1 4.5 0.1 6 0.1q0.3 0 0.7 0 0.3 0 0.6 0 0.3 0 0.6 0 0.3 0.1 0.7 0.1-0.3 0.1-0.7 0.1z"/>
		<path id="Layer" class="s2" d="m36 64.5q-0.4 0-0.8-0.2-0.4-0.1-0.8-0.2-0.4-0.1-0.8-0.3 0.8 0 1.7 0.1 0.8 0.1 1.7 0.2 0.8 0.2 1.6 0.4 0.8 0.2 1.7 0.5-0.5 0-0.9 0-0.4 0-0.9-0.1-0.4 0-0.8-0.1-0.4 0-0.8-0.1-0.5-0.1-0.9-0.2z"/>
		<path id="Layer" class="s2" d="m53.3 39.6q-0.5-0.8-0.9-1.6-0.4-0.9-0.7-1.7-0.2-0.9-0.4-1.8 0.2 0.4 0.4 0.8 0.3 0.4 0.5 0.8 0.2 0.4 0.3 0.8 0.2 0.4 0.4 0.8 0.2 0.4 0.4 0.9 0.2 0.4 0.4 0.8 0.2 0.4 0.3 0.8 0.2 0.4 0.3 0.9-0.5-0.8-1-1.5z"/>
		<path id="Layer" class="s2" d="m79 35.7q0.4-1.1 0.7-2.1 0.4-1.1 0.8-2.2 0.4-1 0.8-2.1c1-2.7 2-5.1 2.6-6.6l0.3 0.1c-0.5 1.6-1.4 4-2.4 6.7q-0.4 1.1-0.8 2.1-0.4 1.1-0.8 2.2-0.4 1-0.9 2-0.4 1.1-0.9 2.1 0.3-1.1 0.6-2.2z"/>
		<path id="Layer" class="s2" d="m83.1 34.3q-0.3 0.4-0.7 0.9-0.4 0.4-0.8 0.8-0.4 0.4-0.9 0.7 0.3-0.5 0.6-0.9 0.3-0.5 0.7-1 0.3-0.4 0.7-0.9 0.3-0.4 0.7-0.8 0.3-0.5 0.7-1 0.3-0.4 0.7-0.9 0.4-0.4 0.8-0.8 0.4-0.4 0.8-0.8-0.3 0.5-0.6 1-0.3 0.5-0.6 1-0.3 0.4-0.6 0.9-0.4 0.4-0.8 0.9-0.3 0.4-0.7 0.9z"/>
		<path id="Layer" class="s2" d="m93.5 39.3q-0.5 0.3-1 0.5-0.5 0.3-1 0.5-0.5 0.2-1 0.4 0.4-0.4 0.9-0.7 0.4-0.3 0.9-0.6 0.4-0.3 0.9-0.6 0.4-0.3 0.9-0.5 0.5-0.4 0.9-0.7 0.5-0.3 0.9-0.6 0.5-0.2 1-0.5 0.4-0.3 0.9-0.5-0.3 0.4-0.8 0.7-0.4 0.4-0.8 0.8-0.4 0.3-0.9 0.6-0.4 0.3-0.9 0.6-0.5 0.3-0.9 0.6z"/>
		<path id="Layer" class="s2" d="m101.8 47.1q0.4-0.1 0.8-0.3 0.3-0.1 0.7-0.2 0.4 0 0.8-0.1-0.3 0.2-0.7 0.4-0.3 0.2-0.6 0.4-0.4 0.2-0.7 0.3-0.4 0.2-0.8 0.3-0.3 0.2-0.7 0.4-0.3 0.1-0.7 0.3-0.3 0.1-0.7 0.2-0.4 0.1-0.8 0.2 0.3-0.3 0.7-0.5 0.3-0.2 0.6-0.4 0.4-0.2 0.7-0.4 0.4-0.1 0.7-0.3 0.4-0.1 0.7-0.3z"/>
		<circle id="Layer" class="s3" cx="69.3" cy="65.3" r="24.9"/>
		<path id="Layer" class="s2" d="m81 117.2q0 0.1 0 0.2 0.1 0 0.1 0.1 0 0.1 0 0.2 0 0 0 0.1c0.1 0.5 0.2 1 0.3 1.8 0.2 1.5 0.4 3.7 0.8 6.4 0.7 5.4 1.6 12.9 2.8 21.1 1.2 8.2 2.4 15.7 3.3 21.1 0.5 2.6 0.9 4.8 1.1 6.3q0.2 1.1 0.3 1.8 0 0 0 0.1 0 0.1 0 0.2 0.1 0 0.1 0.1 0 0.1 0 0.2-0.1-0.1-0.1-0.2 0 0 0-0.1-0.1-0.1-0.1-0.2 0 0 0-0.1c-0.1-0.5-0.2-1-0.4-1.7-0.3-1.5-0.7-3.7-1.2-6.4-1-5.3-2.3-12.8-3.5-21-1.2-8.2-2.1-15.7-2.7-21.1-0.3-2.8-0.5-5-0.6-6.5q-0.1-1.1-0.2-1.7 0-0.1 0-0.2 0-0.1 0-0.2 0 0 0-0.1 0-0.1 0-0.2z"/>
		<path id="Layer" class="s2" d="m66.6 112c0.1 0 1.3 20.3 2.6 45.4 1.3 25.2 2.3 45.5 2.2 45.5-0.2 0-1.4-20.3-2.7-45.4-1.3-25.1-2.3-45.5-2.1-45.5z"/>
		<path id="Layer" class="s2" d="m58.6 116.4q0 0.1 0 0.2 0 0 0 0.1 0 0.1 0 0.2-0.1 0-0.1 0.1-0.1 0.7-0.3 1.7c-0.3 1.6-0.7 3.7-1.3 6.3-1.1 5.3-2.6 12.6-4.3 20.6-1.7 8.1-3.3 15.3-4.5 20.6-0.5 2.6-1 4.7-1.4 6.3q-0.2 1-0.4 1.7 0 0 0 0.1 0 0.1-0.1 0.2 0 0 0 0.1 0 0.1-0.1 0.2 0-0.1 0-0.2 0.1-0.1 0.1-0.1 0-0.1 0-0.2 0-0.1 0-0.2 0.1-0.6 0.3-1.7c0.3-1.5 0.8-3.6 1.3-6.2 1.1-5.4 2.6-12.6 4.3-20.7 1.7-8 3.3-15.3 4.5-20.6 0.6-2.6 1.1-4.7 1.4-6.2q0.3-1.1 0.4-1.7 0-0.1 0.1-0.2 0 0 0-0.1 0-0.1 0-0.2 0.1 0 0.1-0.1z"/>
		<path id="Layer" class="s0" d="m71.2 51.3l3.5 7.1q0.1 0.1 0.2 0.2 0.1 0.1 0.2 0.2 0.1 0.1 0.2 0.2 0.2 0 0.3 0l7.8 1.2q0.4 0 0.6 0.3 0.3 0.2 0.4 0.5 0.1 0.3 0 0.6-0.1 0.3-0.3 0.6l-5.7 5.5q-0.1 0.1-0.2 0.2 0 0.1-0.1 0.3 0 0.1 0 0.3 0 0.1 0 0.3l1.3 7.8q0.1 0.3 0 0.6-0.2 0.3-0.5 0.5-0.2 0.2-0.6 0.3-0.3 0-0.6-0.2l-7-3.7q-0.1 0-0.3-0.1-0.1 0-0.3 0-0.1 0-0.3 0-0.1 0.1-0.2 0.1l-7 3.7q-0.3 0.2-0.7 0.2-0.3-0.1-0.6-0.3-0.3-0.2-0.4-0.5-0.1-0.3-0.1-0.6l1.4-7.8q0-0.2 0-0.3 0-0.2-0.1-0.3 0-0.2-0.1-0.3-0.1-0.1-0.2-0.2l-5.6-5.5q-0.3-0.3-0.3-0.6-0.1-0.3 0-0.6 0.1-0.3 0.4-0.5 0.2-0.3 0.5-0.3l7.9-1.2q0.1 0 0.2 0 0.2-0.1 0.3-0.2 0.1-0.1 0.2-0.2 0.1-0.1 0.2-0.2l3.5-7.1q0.1-0.3 0.4-0.5 0.3-0.2 0.6-0.2 0.4 0 0.7 0.2 0.2 0.2 0.4 0.5z"/>
		<path id="Layer" class="s0" d="m79.6 49.1l0.4 1.3q0.1 0.3 0.2 0.5 0.1 0.2 0.3 0.3 0.2 0.2 0.4 0.3 0.2 0.1 0.4 0.2l1.4 0.4-1.4 0.5q-0.2 0.1-0.4 0.2-0.2 0.1-0.4 0.2-0.1 0.2-0.2 0.4-0.1 0.2-0.2 0.4l-0.5 1.4-0.5-1.5q-0.1-0.2-0.2-0.4-0.1-0.1-0.3-0.3-0.2-0.1-0.3-0.3-0.2-0.1-0.4-0.1l-1.3-0.5 1.3-0.4q0.1-0.1 0.3-0.2 0.2-0.1 0.4-0.2 0.1-0.2 0.2-0.4 0.1-0.1 0.2-0.3z"/>
		<g id="Layer" style="opacity: .3">
			<path id="Layer" fill-rule="evenodd" class="s1" d="m83.6 22.7l0.1-0.1q0 0 0.1 0 0 0 0 0.1 0.1 0 0.1 0 0 0 0 0c-0.6 1.5-1.6 3.9-2.6 6.7q-0.4 1-0.8 2.1-0.4 1-0.7 2.1-0.4 1.1-0.7 2.1-0.4 1.1-0.7 2.2 0.5-1 1-2 0.4-1.1 0.8-2.1 0.5-1.1 0.9-2.1 0.4-1.1 0.7-2.2c1-2.7 1.9-5.1 2.4-6.7q0.2 0.1 0.3 0.2 0.2 0 0.4 0.1 0.1 0 0.3 0.1 0.2 0.1 0.3 0.1c1.8 0.6 3.9-0.3 5.8-0.2q0 0 0 0 0 0.1 0 0.1 0 0 0 0 0 0 0 0 0 0.3-0.1 0.6 0 0.3-0.2 0.6-0.1 0.2-0.2 0.5-0.2 0.2-0.4 0.4l-10.2 12.8q0 0.1-0.1 0.2-0.1 0.1-0.2 0.2-0.1 0-0.2 0.1-0.1 0.1-0.2 0.2c-0.6-0.2-1-0.4-1.6-0.6q0-0.1 0.1-0.2 0-0.2 0-0.3 0-0.1 0.1-0.2 0-0.2 0-0.3 2.8-7.2 5.5-14.5zm-0.9 11.2q-0.4 0.5-0.7 0.9-0.4 0.5-0.7 1-0.3 0.4-0.6 0.9 0.5-0.3 0.9-0.7 0.4-0.4 0.8-0.8 0.4-0.5 0.7-0.9 0.4-0.5 0.7-0.9 0.4-0.5 0.8-0.9 0.3-0.5 0.6-0.9 0.3-0.5 0.6-1 0.3-0.5 0.6-1-0.4 0.4-0.8 0.8-0.4 0.4-0.8 0.8-0.4 0.5-0.7 0.9-0.4 0.5-0.7 0.9-0.4 0.5-0.7 0.9z"/>
			<path id="Layer" class="s1" d="m88.2 39.2c2.9-3.6 6.4-7.3 9.2-10.3 1.7 0.7 3.8 0.7 5.4 1.2q0.3 0.1 0.5 0.2 0.2 0.1 0.4 0.2 0.2 0.2 0.4 0.3 0.2 0.2 0.4 0.3c-5.2 3.9-12 8.3-17.8 11.7l-0.6-0.4q0.1-0.2 0.1-0.3 0.1-0.2 0.2-0.3 0.1-0.2 0.2-0.3 0.1-0.2 0.2-0.3c1.1-1.1 2.7-2.8 4.4-4.6 1.7-1.8 3.2-3.5 4.2-4.7q0.3-0.3 0.5-0.5 0.2-0.3 0.4-0.5 0.2-0.3 0.4-0.6 0.2-0.2 0.4-0.5-0.3 0.2-0.5 0.4-0.3 0.2-0.5 0.4-0.2 0.3-0.5 0.5-0.2 0.3-0.4 0.5c-1.2 1.2-2.7 2.8-4.4 4.6-1 1.1-1.9 2.1-2.6 3z"/>
			<path id="Layer" fill-rule="evenodd" class="s1" d="m104.6 42l1.7-1c1.2 1.8 3.7 2.4 5.4 3.7-5.5 2.2-12.9 5.6-17.7 6.6l-0.4-0.6q0-0.2 0-0.4 0-0.1 0-0.3 0.1-0.1 0.1-0.3 0.1-0.1 0.1-0.3c0.6-1.3 2.4-2.2 4.3-3.3 1.8-1.2 3.5-2.1 4.8-2.9q0.2-0.1 0.5-0.2 0.2-0.2 0.5-0.3 0.2-0.2 0.5-0.4 0.2-0.1 0.5-0.3c-0.1-0.1-0.2 0-0.3 0zm-3.3 5.9q0.4-0.1 0.8-0.2 0.3-0.2 0.7-0.3 0.3-0.2 0.6-0.4 0.4-0.2 0.7-0.4-0.8 0.1-1.5 0.4-0.8 0.2-1.5 0.5-0.7 0.3-1.4 0.7-0.6 0.4-1.2 0.9 0.3-0.1 0.7-0.2 0.4-0.1 0.7-0.3 0.4-0.1 0.7-0.3 0.4-0.1 0.7-0.3z"/>
			<path id="Layer" class="s1" d="m110.6 52.6l2.6-0.8q0 0.2 0 0.4 0 0.2 0 0.4 0.1 0.2 0.1 0.4 0.1 0.2 0.1 0.4c0.5 1.7 1.8 3 2.9 4.3q0.2 0.3 0.4 0.5 0.1 0.2 0.3 0.5 0.1 0.3 0.3 0.5 0.1 0.3 0.2 0.5c-6.1 0.4-14.4 0.9-19.4 1h-0.8q-0.1-0.3-0.1-0.7-0.1-0.4-0.2-0.8-0.1-0.3-0.2-0.7-0.1-0.4-0.2-0.8l0.9-0.3q0.2-0.1 0.5-0.1 0.3-0.1 0.5-0.1 0.3-0.1 0.6-0.2 0.2-0.1 0.5-0.2c1.2-0.4 3-1 4.9-1.7 1.9-0.7 3.6-1.4 4.9-1.9z"/>
			<path id="Layer" class="s1" d="m112 67.5q1.1 0.1 2.2 0.2c-0.1 2.3 2.8 4.1 2.7 6.5q0 0.2 0 0.4-0.1 0.1-0.1 0.3 0 0.2-0.1 0.3-0.1 0.2-0.1 0.3c-6.1-2.2-13.8-4.9-19.1-6.9 0.1-0.8 0.2-1.6 0.2-2.4h0.4q1.3 0 2.6 0.1-0.3 0-0.6 0-0.3 0-0.6 0-0.2 0-0.5 0-0.3 0-0.5 0.1 0.3 0 0.6 0.1 0.4 0 0.7 0.1 0.4 0 0.7 0 0.4 0.1 0.7 0.1l6.7 0.5z"/>
			<path id="Layer" class="s1" d="m105.2 79.4c2.6 1.4 5 2.7 6.5 3.4 0.3 2.5 2 5.2 0.7 7.4q-0.1 0.2-0.3 0.4-0.2 0.2-0.4 0.4-0.2 0.2-0.4 0.4-0.2 0.1-0.5 0.3c-5.1-4.5-11.2-10.8-15.8-14.3q0.2-0.3 0.3-0.7 0.2-0.3 0.3-0.7 0.1-0.3 0.3-0.7 0.1-0.3 0.2-0.7l0.8 0.4 2.8 1.4c1.4 0.8 3.4 1.9 5.5 3z"/>
			<path id="Layer" class="s1" d="m105.6 92.5l1.6 1.3q-0.1 0-0.1 0.1-0.1 0-0.2 0.1 0 0.1-0.1 0.2-0.1 0-0.1 0.1c-1.1 1.5-0.9 3.8-1.8 5.4-4.1-4.5-9.5-10.6-12.9-14.2q-0.2-0.2-0.4-0.4-0.1-0.2-0.3-0.4-0.2-0.2-0.3-0.4-0.1-0.2-0.3-0.4 0.6-0.6 1.2-1.4c0.3 0.3 1.1 1 2.3 1.8 1.5 1.2 3.8 2.8 6.2 4.6 1.9 1.3 3.7 2.6 5.2 3.6z"/>
			<path id="Layer" class="s1" d="m94.7 103.3l0.4 0.6c-0.7 2.2 0.1 5-1.7 6.4q-0.3 0.2-0.5 0.3-0.3 0.1-0.6 0.2-0.3 0.1-0.6 0.1-0.3 0-0.6-0.1c-2.9-6.8-5.9-15.4-7-21.2q0.8-0.5 1.6-1.1 0.2 0.2 0.3 0.5 0.2 0.2 0.4 0.4 0.2 0.2 0.4 0.4 0.2 0.2 0.3 0.5-0.2-0.2-0.5-0.3-0.2-0.1-0.5-0.1-0.3-0.1-0.5 0-0.3 0-0.6 0.1c-0.5 0.3-0.5 0.6-0.5 0.7 0 0 0.2-0.3 0.6-0.5q0.3-0.1 0.5-0.1 0.3 0 0.6 0.1 0.2 0 0.4 0.2 0.3 0.1 0.5 0.3 0.2 0.3 0.5 0.6 0.2 0.3 0.4 0.7 0.3 0.3 0.5 0.7 0.2 0.3 0.3 0.7 0.9 1.6 2 3.5c1.5 2.5 2.8 4.8 3.9 6.4z"/>
			<path id="Layer" class="s1" d="m81.7 102.9c0.7 2.4 1.3 4.8 1.8 7q-0.7 0.4-1.3 0.8-0.6 0.3-1.2 0.7-0.6 0.4-1.2 0.9-0.6 0.4-1.1 0.9c-0.4-6.4-0.7-14.4-0.5-20.1l0.3 0.7c0.1 0.4 0.3 1 0.5 1.8 0.5 1.7 1.1 3.6 1.7 5.7l1.7 5.7q0 0.3 0.1 0.6 0.1 0.3 0.2 0.6 0.1 0.3 0.2 0.6 0.1 0.2 0.3 0.5-0.1-0.3-0.1-0.6 0-0.3-0.1-0.6 0-0.3-0.1-0.6-0.1-0.3-0.2-0.6c-0.2-1.1-0.6-2.4-1-4z"/>
			<path id="Layer" class="s1" d="m70.4 106.9c-0.2 2-0.4 3.8-0.5 5.5q-0.3-0.2-0.6-0.4-0.3-0.2-0.6-0.3-0.4-0.1-0.7-0.2-0.4-0.1-0.7-0.1c-2.2 0.2-3.5 2.7-5.6 3.1 1.8-5.5 3.5-13.2 5.3-18.4q0-0.3 0.2-0.6 0.1-0.3 0.2-0.6 0.2-0.3 0.4-0.5 0.1-0.3 0.4-0.5 0-0.1 0-0.1 0 0 0 0 0 0 0 0 0 0 0.1 0 0.5 0 1 0h0.6q0.1 0.1 0.3 0.2 0.2 0.1 0.3 0.3 0.1 0.2 0.3 0.3 0.1 0.2 0.2 0.4 0.1 0.4 0.1 0.7 0.1 0.4 0.1 0.8 0 0.4 0 0.8 0 0.3-0.1 0.7l-0.6 3.9c-0.3 2.7-0.6 5.2-0.8 7q-0.1 0.3-0.1 0.7-0.1 0.4-0.1 0.7 0 0.4 0 0.8 0 0.3 0 0.7 0.1-0.4 0.2-0.7 0.1-0.4 0.1-0.7 0.1-0.4 0.2-0.8 0-0.3 0.1-0.7c0-0.6 0.2-1.3 0.3-2z"/>
			<path id="Layer" class="s1" d="m54.2 107.3c-0.5 1-1 1.7-1.2 2.1-2.6-0.2-5.6 1.2-7.8 0.3 3.9-5.3 9.4-12.3 13.3-16.6q0.1-0.1 0.2-0.2 0.1-0.1 0.2-0.2 0.2-0.1 0.3-0.1 0.2-0.1 0.3-0.1 0.1 0.2 0.2 0.5 0.1 0.2 0.1 0.4 0.1 0.3 0.1 0.6 0 0.2 0 0.5 0 0.4 0 0.7-0.1 0.4-0.2 0.8-0.1 0.4-0.2 0.7-0.1 0.4-0.3 0.8c-0.4 1.1-1 2.3-1.6 3.5-1.2 2.5-2.5 4.7-3.4 6.3z"/>
			<path id="Layer" class="s1" d="m42.2 101.5q-0.1-0.1-0.1-0.2-0.1-0.1-0.2-0.2 0-0.1-0.1-0.2 0-0.1-0.1-0.1c-1.3-1.6-3.6-1.7-5.7-2l11.9-8.9q0.3-0.3 0.7-0.6 0.4-0.3 0.9-0.5 0.4-0.3 0.8-0.5 0.5-0.2 0.9-0.4c-0.5 0.4-1.3 0.9-2.2 1.6q-0.3 0.2-0.7 0.5-0.4 0.3-0.7 0.6-0.4 0.3-0.7 0.7-0.3 0.3-0.7 0.7 0.5-0.2 0.9-0.5 0.4-0.2 0.8-0.5 0.4-0.2 0.7-0.5 0.4-0.3 0.8-0.6 0.3-0.3 0.6-0.5 0.3-0.3 0.6-0.5 0.4-0.3 0.7-0.6 0.3-0.2 0.6-0.5 0.9 0.7 1.9 1.3c-0.7 0.6-2.6 2.7-4.8 5.1-2.1 2.2-3.9 4.1-4.6 4.9-0.8 0.9-1.6 1.7-2.2 2.4z"/>
			<path id="Layer" class="s1" d="m37.5 88.7c-2 1.1-3.9 2.3-5.7 3.4q0-0.1 0-0.2-0.1-0.1-0.1-0.3 0-0.1-0.1-0.2 0-0.1-0.1-0.2c-1.3-2.2-4.9-1.6-6.9-3.1 6.3-2.3 14.5-5.4 19.9-6.8q0.1 0 0.3-0.1 0.1 0 0.3 0 0.1 0 0.3 0 0.1 0 0.3 0 0.4 0.6 0.9 1.3-0.1 0.1-0.1 0.2-0.1 0.1-0.2 0.2-0.1 0.2-0.2 0.2-0.1 0.1-0.3 0.2 0 0 0 0 0.1 0 0.1-0.1 0 0 0 0 0 0 0 0 0-0.2 0-0.3 0-0.1 0-0.2 0-0.1 0-0.2-0.1-0.1-0.1-0.2c-0.2-0.4-0.6-0.5-0.6-0.4 0 0 0.3 0.1 0.4 0.5q0 0.1 0.1 0.1 0 0.1 0 0.2 0 0.1 0 0.2-0.1 0.1-0.1 0.2 0 0.1-0.1 0.2-0.1 0.1-0.1 0.2-0.1 0.1-0.2 0.2-0.1 0-0.2 0.1c-1.2 0.9-3.1 2-5.1 3.3-0.9 0.5-1.7 1.1-2.4 1.6z"/>
			<path id="Layer" class="s1" d="m29.8 78.4l-5 1.1q0.1-0.4 0.2-0.8 0-0.5 0-0.9 0-0.4-0.1-0.8-0.1-0.4-0.3-0.8c-0.8-1.6-2.9-2.3-3.8-3.9q9.9 0.3 19.8 0.6 0.2 0 0.4 0 0.1 0.1 0.3 0.1 0.2 0 0.3 0.1 0.2 0 0.3 0.1c0.2 0.5 0.4 1 0.5 1.5q-0.1 0.1-0.2 0.2-0.1 0.1-0.2 0.2-0.1 0.1-0.3 0.1-0.1 0.1-0.3 0.1l-0.4 0.2q0.1-0.1 0.2-0.2 0.1-0.1 0.2-0.1 0.2-0.1 0.2-0.2 0.1-0.1 0.2-0.2c0.3-0.4 0.5-0.8 0.4-0.6q-0.2 0.2-0.5 0.4-0.2 0.2-0.5 0.4-0.3 0.2-0.6 0.3-0.3 0.2-0.6 0.3c-0.7 0.3-1.7 0.5-2.7 0.7l-3.5 1c-1.4 0.3-2.8 0.7-4 1.1z"/>
			<path id="Layer" fill-rule="evenodd" class="s1" d="m23.2 65.6q0.1 0 0.2 0 0.1 0.1 0.2 0.1l-1.3-0.1q0.2-0.3 0.4-0.7 0.3-0.4 0.5-0.7 0.2-0.4 0.3-0.8 0.2-0.4 0.3-0.8c0.5-1.7 0.1-3.9-1.5-4.6l0.1 0.9q-0.4-0.1-0.7-0.3-0.3-0.3-0.5-0.7-0.2-0.3-0.3-0.7-0.1-0.4 0-0.8c6.5 1.8 14.4 4.1 19.8 7.4l0.2 0.1c0 0.4 0 1 0 1.4q0 0.5 0 1h-0.2c-2 0.1-4.3 0.1-6.8 0 1.4 0 2.8-0.1 3.8-0.1q0.3 0 0.6 0 0.3-0.1 0.6-0.1 0.4 0 0.7-0.1 0.3 0 0.6-0.1-0.3 0-0.6-0.1-0.4 0-0.7 0-0.3 0-0.6 0-0.3 0-0.6 0c-1.6 0-3.7 0-6.1-0.1-2.4 0-4.5-0.1-6.1-0.2q-0.3 0-0.6 0-0.3 0-0.6 0-0.4 0-0.7 0-0.3 0-0.6 0 0.1 0.1 0.2 0.1zm0.6 0.1q-0.1 0-0.2 0 0 0 0 0zm12.4-1.8q-0.5 0-0.9-0.1-0.4 0-0.8 0-0.5 0-0.9 0 0.4 0.2 0.8 0.3 0.4 0.1 0.8 0.2 0.4 0.1 0.9 0.2 0.4 0.1 0.8 0.1 0.4 0.1 0.8 0.2 0.5 0.1 0.9 0.1 0.4 0.1 0.8 0.1 0.5 0 0.9 0-0.4-0.2-0.8-0.3-0.4-0.2-0.8-0.3-0.4-0.1-0.9-0.2-0.4 0-0.8-0.1-0.4-0.1-0.8-0.2z"/>
			<path id="Layer" class="s1" d="m25.6 50.9l-1.2-0.5q0.1-0.1 0.2-0.3 0.1-0.1 0.1-0.3 0.1-0.1 0.2-0.3 0-0.1 0.1-0.3c0.6-1.9-0.1-4.3 0.2-6.2q2 1.1 4 2.3 2 1.2 4 2.5 2 1.3 3.9 2.6 2 1.3 3.9 2.6l-1.7-1q-0.6-0.3-1.2-0.7-0.6-0.3-1.2-0.7-0.6-0.3-1.3-0.6-0.6-0.3-1.3-0.5 0.6 0.4 1.2 0.8 0.5 0.4 1.1 0.8 0.6 0.4 1.2 0.7 0.6 0.4 1.3 0.7c1.5 0.9 2.9 1.6 3.8 2.1q-0.3 0.8-0.6 1.7 0 0 0 0.1-0.1 0-0.1 0 0 0 0 0 0 0 0 0.1-0.2 0-0.3 0.1-0.1 0-0.3 0-0.1 0-0.3 0-0.1 0-0.2 0-0.7-0.1-1.4-0.2-0.7-0.2-1.3-0.4-0.7-0.1-1.3-0.3-0.7-0.2-1.4-0.5c-1.8-0.7-3.7-1.5-5.6-2.3l-2-1q-0.4-0.2-0.7-0.3-0.3-0.2-0.7-0.3-0.3-0.2-0.6-0.3-0.4-0.1-0.7-0.3c0 0.1 0.1 0.1 0.2 0.2z"/>
			<path id="Layer" class="s1" d="m35.4 39.6q0.1 0.2 0.3 0.5 0.2 0.2 0.4 0.4 0.2 0.2 0.4 0.4c-1.2-1-2.4-2.1-3.4-3 0.5-1.6 0.1-3.7 1.2-5q0.2-0.3 0.5-0.5 0.2-0.2 0.5-0.3 0.3-0.2 0.6-0.3 0.3-0.1 0.6-0.1 1.1 1.3 2.1 2.6 1.1 1.4 2.1 2.7 1 1.4 1.9 2.8 1 1.4 1.9 2.8-0.2-0.2-0.3-0.5-0.2-0.2-0.4-0.5-0.2-0.2-0.4-0.4-0.2-0.2-0.4-0.5 0.2 0.6 0.5 1.1 0.2 0.5 0.5 1 0.3 0.5 0.7 1 0.3 0.4 0.7 0.9c0.7 1 1.3 1.8 1.8 2.4l0.1 0.1q-0.6 0.7-1.1 1.4l-0.4-0.3c-1.2-0.9-2.8-2.1-4.6-3.6-1.7-1.5-3.3-3-4.3-4q-0.2-0.2-0.5-0.4-0.2-0.2-0.4-0.4-0.2-0.2-0.5-0.4-0.2-0.2-0.4-0.4 0.1 0.2 0.3 0.5z"/>
			<path id="Layer" fill-rule="evenodd" class="s1" d="m44.8 31c-0.7-0.9-1.4-1.8-2-2.6 0.9-1.7 1.5-3.9 3.1-4.9q0.2-0.1 0.3-0.2 0.1 0 0.3-0.1 0.1-0.1 0.2-0.1 0.2-0.1 0.3-0.2c2.3 5.5 5.7 13 7.6 17.9 0 0 0 0.1 0 0.1q-0.7 0.5-1.4 0.9c0.1-0.1-2-2.6-4.5-5.8-1.7-2.1-3.2-4-3.9-5zm6.9 5.3q0.3 0.9 0.7 1.7 0.4 0.8 0.9 1.6 0.5 0.8 1 1.5-0.1-0.4-0.3-0.9-0.1-0.4-0.3-0.8-0.2-0.4-0.4-0.8-0.2-0.4-0.4-0.8-0.2-0.4-0.4-0.9-0.1-0.4-0.3-0.8-0.2-0.4-0.5-0.8-0.2-0.4-0.4-0.7 0.2 0.8 0.4 1.7z"/>
			<path id="Layer" class="s1" d="m57.4 24.9v-0.4q0.3 0 0.6-0.1 0.3-0.1 0.5-0.3 0.3-0.1 0.5-0.3 0.2-0.2 0.4-0.5c1.4-1.9 2-3.3 2.8-4.1 0 5.2-0.1 11.9-0.1 17.1q0-0.8-0.1-1.8-0.1-0.5-0.1-0.9-0.1-0.4-0.2-0.8-0.1-0.5-0.3-0.9-0.1-0.4-0.3-0.8 0 0.5 0 0.9 0 0.4 0.1 0.8 0 0.5 0.1 0.9 0 0.4 0.1 0.8 0.1 0.4 0.1 0.9 0.1 0.4 0.1 0.8 0.1 0.4 0.2 0.8 0 0.4 0.1 0.8-0.8 0.3-1.6 0.5-0.2-0.5-0.4-1.2c-0.3-1.3-0.6-2.9-1-4.7-0.4-2.1-0.8-4-1-5.4q0-0.3-0.1-0.6 0-0.3-0.1-0.5-0.1-0.3-0.1-0.6-0.1-0.3-0.2-0.5 0 0 0 0.1z"/>
			<path id="Layer" class="s1" d="m70 23.2v-0.4q0.1 0.1 0.2 0.2 0.1 0.1 0.2 0.1 0.1 0.1 0.2 0.1 0.1 0.1 0.3 0.1c0.9 0 2.8-3.8 4.3-4.6q0.3-0.1 0.5-0.2 0.2-0.1 0.4-0.2 0.2 0 0.5-0.1 0.2 0 0.4 0c-1 4.1-2.2 9.7-3.1 13.3q-0.1 0.7-0.3 1.4-0.2 0.7-0.5 1.4-0.3 0.7-0.6 1.4-0.3 0.6-0.7 1.3c-0.7-0.1-1.4-0.1-2-0.1 0.1-1.3 0.1-3.8 0.2-6.7 0-3.1 0-5.8 0-7z"/>
		</g>
	</g>
</svg>